<?xml version="1.0" encoding="utf-8"?>
<!-- Generator: Adobe Illustrator 28.2.0, SVG Export Plug-In . SVG Version: 6.00 Build 0)  -->
<svg version="1.1" id="Layer_1" xmlns="http://www.w3.org/2000/svg" xmlns:xlink="http://www.w3.org/1999/xlink" x="0px" y="0px"
	 viewBox="0 0 1075 500" style="enable-background:new 0 0 1075 500;" xml:space="preserve">
<style type="text/css">
	.st0{fill:#28257E;}
	.st1{fill:#B23B3F;}
	.st2{fill:url(#SVGID_1_);}
	.st3{fill:url(#SVGID_00000016065421284314726010000016804005082375932332_);}
</style>
<g transform="translate(0.000000,500.000000) scale(0.100000,-0.100000)">
	<path class="st0" d="M5442,4550c-44-10-70-36-77-74c-3-17,3-119,15-226c21-200,57-551,111-1065c16-159,41-400,54-535
		c14-135,29-283,35-330c5-47,21-200,35-340c45-450,43-443,110-474c28-14,90-16,446-16c392,0,415,1,454,20c50,24,85,60,117,120
		c40,73,112,208,166,310c65,124,302,571,359,680c85,160,130,245,182,343c117,223,158,300,239,452c47,88,118,222,158,297
		c41,76,74,139,74,142c0,2,20,39,44,82c24,44,71,133,106,199c34,66,87,167,117,224c58,111,61,136,22,176c-19,19-33,20-367,20
		c-456,0-411,24-577-300c-54-104-130-253-170-330s-123-239-185-360s-148-287-190-370c-181-351-231-448-299-582c-40-79-76-143-82-143
		c-5,0-9,21-9,48c0,26-7,119-15,207c-22,235-71,773-105,1155c-59,661-51,617-108,652c-36,23-43,23-332,25
		C5608,4558,5460,4555,5442,4550z"/>
	<path class="st1" d="M4175,4530c-47-22-73-44-101-85c-18-25-133-241-367-685c-27-52-66-126-87-165c-21-38-77-144-125-235
		s-104-196-125-235c-34-64-153-290-303-575c-33-63-80-150-104-194c-24-43-43-80-43-82c0-3-31-62-69-132c-314-584-315-586-267-631
		c23-22,24-22,377-19l354,3l45,31c38,27,55,51,114,165c38,74,92,179,121,234s110,213,180,350c129,252,238,465,431,838
		c57,111,135,262,171,334c37,73,70,129,74,125s19-140,33-302s39-441,56-620c16-179,43-485,60-680s36-373,43-395c8-26,24-47,46-62
		c34-23,38-23,348-23c346,0,359,2,383,60c8,20,10,48,6,83c-4,28-18,158-31,287s-38,368-55,530c-46,440-88,850-120,1175
		c-16,160-38,376-49,480c-11,105-23,226-26,270c-5,52-14,91-27,113c-38,62-35,62-490,62C4241,4550,4212,4548,4175,4530z"/>
	<path class="st1" d="M5254,1236c-3-8-4-29-2-48c3-31,5-33,58-44c75-15,99-29,116-69c16-39,18-75,5-75c-5,0-25,7-44,15
		c-163,68-341-79-325-270c8-99,69-140,203-139c146,1,219,64,258,224c41,172,28,281-42,351C5426,1237,5269,1275,5254,1236z M5355,916
		c24-17,22-92-4-151c-36-82-132-85-139-3C5202,875,5287,966,5355,916z"/>
	<path class="st0" d="M9044,1213c-6-5-14-20-18-35c-4-18-13-28-24-28c-26,0-42-20-42-52c0-22,5-28,21-28c25,0,27,12-26-230
		c-20-91-39-180-42-197l-6-33h76c42,0,78,3,80,8c3,4,15,54,27,111s27,115,33,128c20,43,97,69,125,41c17-17,15-61-8-173
		c-11-53-20-101-20-107c0-5,34-8,77-6l77,3l28,120c33,144,35,189,8,233c-45,73-145,79-261,15c-4-2-2,16,4,41l10,45l61,3
		c52,3,62,6,72,27c20,40,8,51-56,51h-58l2,33l1,32l-65,3C9084,1219,9050,1217,9044,1213z"/>
	<path class="st1" d="M1672,1198c-5-7-27-44-49-83c-22-38-82-142-133-230c-137-239-150-262-143-269c4-3,37-6,75-6h68l31,50l31,50
		h119h119v-24c0-14,4-36,10-50c9-24,14-26,74-26c36,0,67,3,70,8c7,12-76,560-88,580C1846,1215,1686,1214,1672,1198z M1759,963
		c7-49,15-96,17-105c5-16-3-18-75-18c-45,0-81,4-81,8c0,5,16,35,36,68c20,32,45,76,55,97c11,20,23,37,28,37
		C1743,1050,1752,1011,1759,963z"/>
	<path class="st0" d="M6903,1198c-6-7-30-103-53-213s-50-237-60-282c-9-45-15-85-12-88s89-5,192-5c184,0,187,0,241,28
		c72,36,113,100,113,177c1,43-4,58-23,79l-24,25l41,42c80,79,68,178-28,230C7254,1211,6918,1217,6903,1198z M7188,1078
		c20-20,14-48-17-79c-27-26-36-29-96-29c-65,0-67,1-62,23c3,12,9,39,12,60l7,37h72C7147,1090,7181,1085,7188,1078z M7150,840
		c16-25,11-58-14-87c-21-25-31-28-100-31c-86-5-83-9-64,82l11,58l79-4C7118,856,7144,850,7150,840z"/>
	<path class="st1" d="M2741,1045c-69-20-120-60-157-127c-26-48-29-62-29-146c0-93,0-94,32-122c64-57,180-64,279-16
		c52,25,109,81,98,97c-3,5-32,9-66,9c-43,0-67-5-87-19c-62-44-107-31-118,33c-4,27-2,36,8,37c8,0,73,0,145-1c156-1,158,0,158,100
		c1,73-13,103-66,143C2904,1058,2810,1064,2741,1045z M2841,960c14-8,19-21,19-50v-40h-70c-64,0-70,2-70,21c0,27,53,79,80,79
		C2812,970,2830,965,2841,960z"/>
	<path class="st1" d="M3700,1046c-54-14-112-56-139-100s-54-161-48-207c12-89,79-134,197-134c93,1,164,33,210,97c44,61,38,71-41,70
		c-60,0-69-3-97-31c-36-37-80-41-107-11c-18,19-18,24-2,97c21,94,44,123,100,123c34,0,40-4,50-30c11-30,12-30,84-30h73v33
		c0,50-49,103-112,122C3807,1063,3762,1063,3700,1046z"/>
	<path class="st1" d="M4168,1047c-80-26-136-109-158-232c-9-54-10-80-1-113c26-94,127-129,225-77c25,13,47,22,47,20c1-3,2-11,3-17
		c1-9,22-14,63-16c75-4,74-5,102,138c11,58,29,144,41,193c11,48,18,92,15,97c-3,6-33,10-66,10c-44,0-61-4-65-15c-8-19-23-19-45,1
		S4215,1063,4168,1047z M4295,944c28-11,35-47,21-113c-17-80-45-111-102-111c-47,0-54,9-54,68C4160,895,4226,970,4295,944z"/>
	<path class="st1" d="M5736,1046c-81-30-129-101-152-227c-17-89-9-142,28-176c52-49,122-55,192-18c56,30,58,30,54,8
		c-3-15,6-18,59-21c51-2,63,0,71,15c5,10,21,77,36,148c15,72,33,156,41,187c23,90,24,88-50,88c-49,0-66-4-73-16c-8-15-11-15-35,0
		C5872,1058,5784,1064,5736,1046z M5880,930c23-23,24-31,9-100c-15-71-50-110-98-110c-47,0-61,14-61,63C5730,905,5819,991,5880,930z
		"/>
	<path class="st1" d="M6411,1048c-19-5-44-16-55-24c-27-18-34-18-32,4c1,15-8,17-64,17h-65l-27-115c-39-168-98-447-98-465
		c0-12,14-15,70-15c64,0,70,2,75,23c3,12,12,53,21,92c20,89,22,91,49,65c57-53,173-32,244,45c70,76,106,255,64,326
		C6564,1050,6487,1070,6411,1048z M6440,930c26-26,25-65-1-135c-23-61-40-75-93-75c-68,0-83,67-35,166C6340,948,6401,969,6440,930z"
		/>
	<path class="st0" d="M7468,1052c-47-2-58-6-58-20c0-9,18-98,40-197s40-189,40-201c0-31-44-74-77-74c-39,0-49-9-61-53
		c-15-55-7-67,42-67c103,1,167,62,315,300c29,47,81,130,116,185c36,55,65,106,65,113c0,10-17,12-67,10l-67-3l-78-124
		c-89-142-83-143-112,21c-10,53-23,101-29,105C7530,1051,7499,1054,7468,1052z"/>
	<path class="st0" d="M7973,1053c-48-5-49-8-73-142c-14-80-7-121,26-152c22-21,35-24,102-24c42,0,88,4,101,9c20,7,23,6,18-9
		c-4-9-10-41-13-71l-7-54h76h76l20,93c50,222,71,323,71,335c0,10-19,12-77,10l-78-3l-18-80c-10-44-23-85-29-92c-15-18-107-17-114,1
		c-3,8,2,49,11,91c10,42,16,78,14,79C8070,1052,8012,1056,7973,1053z"/>
	<path class="st0" d="M8454,1045c-7-5-27-80-44-166l-32-157l21-46c15-35,29-50,55-61c53-22,116-19,170,10c44,23,46,24,46,5
		c0-18,7-20,69-20h69l11,33c5,17,17,70,26,117s25,121,36,165c30,128,31,125-50,125c-43,0-72-5-78-12s-20-65-32-128
		c-25-124-40-164-70-180c-24-12-71-13-90-1c-18,11-11,83,20,216c12,53,19,98,16,101C8587,1056,8467,1055,8454,1045z"/>
	<path class="st1" d="M2145,1038c-2-7-15-58-29-113c-38-154-58-195-96-195c-20,0-40-40-43-85c-2-26,2-30,25-33c40-5,104,16,138,45
		c41,34,67,87,93,191l22,87l39,3c58,5,67-1,55-40c-20-66-59-270-53-279c8-14,120-11,131,4c6,6,18,53,28,102c9,50,28,135,41,190
		c36,150,54,135-161,135C2195,1050,2148,1047,2145,1038z"/>
	<path class="st1" d="M3106,1042c-3-5-15-57-27-118c-11-60-30-142-40-183s-19-87-19-103v-29l67,3l68,3l15,80c14,73,18,80,41,83
		s29-5,61-80l36-83l68-3c37-2,71,1,76,6s-11,51-37,105c-25,53-45,100-45,105c0,4,36,50,80,102s80,101,80,108c0,8-20,12-68,12h-69
		l-67-80c-44-53-74-80-88-80c-22,0-22,5-2,123l7,37h-66C3141,1050,3109,1046,3106,1042z"/>
	<path class="st1" d="M4605,1038c-3-7-18-76-35-153s-35-159-40-182c-6-23-10-53-10-67c0-25,2-26,65-26h64l16,52c8,28,15,59,15,69
		c0,44,9,49,87,49h76l-7-37c-4-21-9-60-13-86l-6-48l69,3l69,3l13,65c8,36,27,125,43,198c40,185,43,174-38,170l-67-3l-12-50
		c-6-27-15-62-18-77c-6-28-8-28-82-28h-77l7,38c4,20,10,56,13,80l6,42h-67C4632,1050,4608,1046,4605,1038z"/>
</g>
<linearGradient id="SVGID_1_" gradientUnits="userSpaceOnUse" x1="554.5726" y1="210.8365" x2="638.0015" y2="280.8417">
	<stop  offset="0" style="stop-color:#28257E"/>
	<stop  offset="0.3215" style="stop-color:#27247C"/>
	<stop  offset="0.4894" style="stop-color:#252274"/>
	<stop  offset="0.6218" style="stop-color:#211E66"/>
	<stop  offset="0.7356" style="stop-color:#1A1853"/>
	<stop  offset="0.8375" style="stop-color:#13113B"/>
	<stop  offset="0.9295" style="stop-color:#09081D"/>
	<stop  offset="1" style="stop-color:#000000"/>
</linearGradient>
<path class="st2" d="M566.1,340.8c8.4,34,40.6-32.9,67.8-87.8l-10-109l-71.8,67.1C562.6,294,562.3,333.2,566.1,340.8z"/>
<linearGradient id="SVGID_00000066493951883446655910000001314490522611715465_" gradientUnits="userSpaceOnUse" x1="530.9102" y1="102.8345" x2="615.0318" y2="173.4209" gradientTransform="matrix(-1 0 0 -1 1056.25 287.5896)">
	<stop  offset="0" style="stop-color:#B23B3F"/>
	<stop  offset="0.2915" style="stop-color:#B03A3E"/>
	<stop  offset="0.4438" style="stop-color:#A8383B"/>
	<stop  offset="0.5638" style="stop-color:#9A3337"/>
	<stop  offset="0.6671" style="stop-color:#872D30"/>
	<stop  offset="0.7595" style="stop-color:#6F2527"/>
	<stop  offset="0.8443" style="stop-color:#501B1C"/>
	<stop  offset="0.9221" style="stop-color:#2C0F10"/>
	<stop  offset="0.9944" style="stop-color:#030101"/>
	<stop  offset="1" style="stop-color:#000000"/>
</linearGradient>
<path style="fill:url(#SVGID_00000066493951883446655910000001314490522611715465_);" d="M513.1,54.2c-8.4-34-40.6,32.9-67.8,87.8
	l10,109l71.5-65.3C519,132.5,516.9,61.8,513.1,54.2z"/>
</svg>
