<?xml version="1.0" standalone="no"?>
<!DOCTYPE svg PUBLIC "-//W3C//DTD SVG 20010904//EN"
 "http://www.w3.org/TR/2001/REC-SVG-20010904/DTD/svg10.dtd">
<svg version="1.0" xmlns="http://www.w3.org/2000/svg"
 width="91.000000pt" height="112.000000pt" viewBox="0 0 91.000000 112.000000"
 preserveAspectRatio="xMidYMid meet">

<g transform="translate(0.000000,112.000000) scale(0.100000,-0.100000)"
fill="#fff" stroke="none">
<path d="M30 570 l0 -510 415 0 415 0 0 110 0 110 -35 0 -35 0 0 -75 0 -75
-345 0 -345 0 0 200 0 200 50 0 c49 0 49 0 61 -41 18 -59 79 -123 144 -150 38
-16 55 -28 55 -41 0 -16 -9 -18 -70 -18 l-70 0 0 -35 0 -35 180 0 180 0 0 35
0 35 -75 0 c-68 0 -75 2 -75 20 0 13 9 22 28 26 80 19 165 100 178 170 6 33 7
34 55 34 l49 0 0 -65 0 -65 35 0 35 0 0 170 0 170 -35 0 -35 0 0 -65 c0 -36
-3 -65 -7 -66 -80 -7 -82 -7 -99 45 -22 66 -85 128 -152 150 -39 13 -52 23
-52 37 0 17 8 19 75 19 l75 0 0 35 0 35 -180 0 -180 0 0 -35 0 -35 70 0 c64 0
70 -2 70 -20 0 -11 -8 -23 -17 -26 -90 -27 -152 -84 -182 -165 -16 -43 -17
-44 -61 -44 l-45 0 0 200 0 200 343 3 342 2 0 -75 0 -75 35 0 35 0 0 110 0
110 -415 0 -415 0 0 -510z m380 100 l0 -71 -67 3 c-62 3 -68 5 -65 23 6 30 41
75 76 96 51 31 56 27 56 -51z m136 49 c35 -21 74 -76 74 -103 0 -14 -10 -16
-67 -14 l-68 3 -3 68 c-3 76 5 83 64 46z m-136 -259 l0 -70 -39 20 c-38 19
-81 66 -94 103 -6 15 1 17 63 17 l70 0 0 -70z m210 59 c0 -23 -42 -79 -74 -98
-57 -36 -66 -30 -66 44 l0 65 70 0 c45 0 70 -4 70 -11z"/>
</g>
</svg>
