<svg xmlns="http://www.w3.org/2000/svg" width="430" height="430" style="width:100%;height:100%;transform:translate3d(0,0,0);content-visibility:visible" viewBox="0 0 430 430"><defs><clipPath id="a"><path d="M0 0h430v430H0z"/></clipPath><clipPath id="d"><path d="M0 0h430v430H0z"/></clipPath><clipPath id="c"><path d="M0 0h430v430H0z"/></clipPath><clipPath id="b"><path d="M0 0h430v430H0z"/></clipPath></defs><g clip-path="url(#a)"><g clip-path="url(#b)" style="display:none"><g style="display:none"><path class="primary"/><path fill="none" class="secondary"/></g><g style="display:none"><path class="primary"/><path class="primary" style="mix-blend-mode:multiply"/><path fill="none" class="secondary"/></g><g style="display:none"><path class="primary"/><path fill="none" class="secondary"/></g><g style="display:none"><path class="primary"/><path class="primary" style="mix-blend-mode:multiply"/><path fill="none" class="secondary"/></g></g><g clip-path="url(#c)" style="display:block"><g style="display:block"><path fill="#FFF" d="M7.312 158.751c-2.121 1.445-1.567 4.713.912 5.377l36.92 9.893a175.5 175.5 0 0 0-4.945 41.481c0 37.305 11.672 71.885 31.565 100.284l56.639-32.701c-14.541-18.648-23.204-42.104-23.204-67.583 0-8.473.958-16.724 2.772-24.647l37.333 10.004c2.479.664 4.593-1.888 3.479-4.2l-47.212-97.96a3 3 0 0 0-4.392-1.177z" class="primary"/><path fill="none" stroke="#121330" stroke-linecap="round" stroke-linejoin="round" stroke-width="10.5" d="M7.312 158.751c-2.121 1.445-1.567 4.713.912 5.377l36.92 9.893a175.5 175.5 0 0 0-4.945 41.481c0 37.305 11.672 71.885 31.565 100.284l56.639-32.701c-14.541-18.648-23.204-42.104-23.204-67.583 0-8.473.958-16.724 2.772-24.647l37.333 10.004c2.479.664 4.593-1.888 3.479-4.2l-47.212-97.96a3 3 0 0 0-4.392-1.177z" class="secondary"/></g><g style="display:block"><path fill="#FFF" d="M271.771 7.312c-1.445-2.121-4.713-1.567-5.377.912l-9.893 36.92a175.5 175.5 0 0 0-41.481-4.945c-37.305 0-71.885 11.672-100.284 31.565l32.701 56.639c18.648-14.541 42.104-23.204 67.583-23.204 8.473 0 16.724.958 24.647 2.772l-10.004 37.333c-.664 2.479 1.888 4.593 4.2 3.479l97.96-47.212A3 3 0 0 0 333 97.179z" class="primary"/><path fill="#FFF" fill-opacity=".5" d="M47.642-70.232c-1.445-2.121-4.713-1.567-5.377.912L32.372-32.4a175.5 175.5 0 0 0-41.481-4.945c-37.305 0-71.885 11.672-100.284 31.565l32.701 56.639c18.648-14.541 42.104-23.204 67.583-23.204 8.473 0 16.724.958 24.647 2.772L5.534 67.76c-.664 2.479 1.888 4.593 4.2 3.479l97.96-47.212a3 3 0 0 0 1.177-4.392z" class="primary" style="mix-blend-mode:multiply" transform="translate(224.129 77.544)"/><path fill="none" stroke="#121330" stroke-linecap="round" stroke-linejoin="round" stroke-width="10.5" d="M271.771 7.312c-1.445-2.121-4.713-1.567-5.377.912l-9.893 36.92a175.5 175.5 0 0 0-41.481-4.945c-37.305 0-71.885 11.672-100.284 31.565l32.701 56.639c18.648-14.541 42.104-23.204 67.583-23.204 8.473 0 16.724.958 24.647 2.772l-10.004 37.333c-.664 2.479 1.888 4.593 4.2 3.479l97.96-47.212A3 3 0 0 0 333 97.179z" class="secondary"/></g><g style="display:block"><path fill="#FFF" d="M423.776 271.771c2.121-1.445 1.567-4.713-.912-5.377l-36.92-9.893a175.5 175.5 0 0 0 4.945-41.481c0-37.305-11.672-71.885-31.565-100.284l-56.639 32.701c14.541 18.648 23.204 42.104 23.204 67.583 0 8.473-.958 16.724-2.772 24.647l-37.333-10.004c-2.479-.664-4.593 1.888-3.479 4.2l47.212 97.96a3 3 0 0 0 4.392 1.177z" class="primary"/><path fill="none" stroke="#121330" stroke-linecap="round" stroke-linejoin="round" stroke-width="10.5" d="M423.776 271.771c2.121-1.445 1.567-4.713-.912-5.377l-36.92-9.893a175.5 175.5 0 0 0 4.945-41.481c0-37.305-11.672-71.885-31.565-100.284l-56.639 32.701c14.541 18.648 23.204 42.104 23.204 67.583 0 8.473-.958 16.724-2.772 24.647l-37.333-10.004c-2.479-.664-4.593 1.888-3.479 4.2l47.212 97.96a3 3 0 0 0 4.392 1.177z" class="secondary"/></g><g style="display:block"><path fill="#FFF" d="M158.229 422.776c1.445 2.121 4.713 1.567 5.377-.912l9.893-36.92a175.5 175.5 0 0 0 41.481 4.945c37.305 0 71.885-11.672 100.284-31.565l-32.701-56.639c-18.648 14.541-42.104 23.204-67.583 23.204-8.473 0-16.724-.958-24.647-2.772l10.004-37.333c.664-2.479-1.888-4.593-4.2-3.479l-97.96 47.212A3 3 0 0 0 97 332.909z" class="primary"/><path fill="#FFF" fill-opacity=".5" d="M-47.642 70.232c1.445 2.121 4.713 1.567 5.377-.912l9.893-36.92a175.5 175.5 0 0 0 41.481 4.945c37.305 0 71.885-11.672 100.284-31.565L76.692-50.859C58.044-36.318 34.588-27.655 9.109-27.655c-8.473 0-16.724-.958-24.647-2.772L-5.534-67.76c.664-2.479-1.888-4.593-4.2-3.479l-97.96 47.212a3 3 0 0 0-1.177 4.392z" class="primary" style="mix-blend-mode:multiply" transform="translate(205.871 352.544)"/><path fill="none" stroke="#121330" stroke-linecap="round" stroke-linejoin="round" stroke-width="10.5" d="M158.229 422.776c1.445 2.121 4.713 1.567 5.377-.912l9.893-36.92a175.5 175.5 0 0 0 41.481 4.945c37.305 0 71.885-11.672 100.284-31.565l-32.701-56.639c-18.648 14.541-42.104 23.204-67.583 23.204-8.473 0-16.724-.958-24.647-2.772l10.004-37.333c.664-2.479-1.888-4.593-4.2-3.479l-97.96 47.212A3 3 0 0 0 97 332.909z" class="secondary"/></g></g><g clip-path="url(#d)" style="display:none"><g style="display:none"><path class="primary"/><path fill="none" class="secondary"/></g><g style="display:none"><path class="primary"/><path class="primary" style="mix-blend-mode:multiply"/><path fill="none" class="secondary"/></g><g style="display:none"><path class="primary"/><path fill="none" class="secondary"/></g><g style="display:none"><path class="primary"/><path class="primary" style="mix-blend-mode:multiply"/><path fill="none" class="secondary"/></g></g></g></svg>