<?xml version="1.0" encoding="UTF-8" standalone="no"?>
<svg
   xmlns:dc="http://purl.org/dc/elements/1.1/"
   xmlns:cc="http://creativecommons.org/ns#"
   xmlns:rdf="http://www.w3.org/1999/02/22-rdf-syntax-ns#"
   xmlns:svg="http://www.w3.org/2000/svg"
   xmlns="http://www.w3.org/2000/svg"
   viewBox="0 0 501.98666 436"
   height="436"
   width="501.98666"
   xml:space="preserve"
   id="svg2"
   version="1.1"><metadata
     id="metadata8"><rdf:RDF><cc:Work
         rdf:about=""><dc:format>image/svg+xml</dc:format><dc:type
           rdf:resource="http://purl.org/dc/dcmitype/StillImage" /></cc:Work></rdf:RDF></metadata><defs
     id="defs6" /><g
     transform="matrix(1.3333333,0,0,-1.3333333,0,436)"
     id="g10"><g
       transform="scale(0.1)"
       id="g12"><path
         id="path14"
         style="fill:#fff;fill-opacity:1;fill-rule:nonzero;stroke:none"
         d="m 967.992,872.23 c 25.18,0 39.028,11.379 39.028,33.95 0,22.57 -13.848,33.949 -39.028,33.949 h -69.019 v -68.09 h 69.019 z m -7.113,120.559 c 26.723,0 35.184,14.651 35.184,35.681 0,15.04 -8.461,31.05 -35.184,31.05 h -61.906 v -66.731 z m -117.66,120.361 h 131.886 c 47.675,0 79.585,-35.69 79.585,-84.49 0,-25.27 -9.61,-45.332 -23.07,-57.09 16.73,-10.422 33.84,-29.898 33.84,-65.199 0,-57.09 -33.07,-87.383 -90.55,-87.383 H 843.027 v 294.162 h 0.192" /><path
         id="path16"
         style="fill:#fff;fill-opacity:1;fill-rule:nonzero;stroke:none"
         d="m 1122.17,1113.15 h 196.86 v -52.47 h -140.34 v -64.231 h 127.27 v -51.308 h -127.27 v -73.493 h 140.34 v -52.457 h -196.86 v 294.149 -0.19" /><path
         id="path18"
         style="fill:#fff;fill-opacity:1;fill-rule:nonzero;stroke:none"
         d="m 1377.68,1113.15 h 56.52 V 870.691 h 129.77 v -51.703 h -186.49 v 294.162 h 0.2" /><path
         id="path20"
         style="fill:#fff;fill-opacity:1;fill-rule:nonzero;stroke:none"
         d="m 1582.81,940.711 v 50.34 c 0,80.239 50.37,125.759 124,125.759 73.63,0 121.5,-39.15 123.62,-107.24 h -56.53 c -1.73,33.94 -26.33,52.46 -67.09,52.46 -44.03,0 -67.48,-24.3 -67.48,-70.979 v -50.34 c 0,-46.68 23.45,-70.992 67.48,-70.992 46.52,0 67.48,19.293 67.48,54.59 v 2.89 h -67.87 v 52.473 h 124.39 v -55.551 c 0,-66.351 -49.02,-109.371 -124,-109.371 -74.98,0 -124,45.332 -124,125.762 v 0.199" /><path
         id="path22"
         style="fill:#fff;fill-opacity:1;fill-rule:nonzero;stroke:none"
         d="m 2003.26,991.629 c 27.3,0 40.56,8.871 40.56,34.521 0,25.66 -13.45,34.53 -40.56,34.53 h -58.25 v -68.86 h 58.25 z m -113.81,121.521 h 124.38 c 54.41,0 88.82,-36.65 88.82,-86.61 0,-49.958 -28.83,-87.38 -88.82,-87.38 h -58.25 l 162.65,-120.172 h -93.44 l -79.59,60.961 v -60.961 h -55.75 v 294.162" /><path
         id="path24"
         style="fill:#fff;fill-opacity:1;fill-rule:nonzero;stroke:none"
         d="m 2317.4,941.09 -43.06,161.45 -43.26,-161.45 z m 14.61,-54.578 h -115.54 l -18.07,-67.711 h -57.48 l 78.82,294.149 h 109.78 l 77.86,-294.149 h -57.49 l -18.07,67.711 h 0.19" /><path
         id="path26"
         style="fill:#fff;fill-opacity:1;fill-rule:nonzero;stroke:none"
         d="m 2626.55,949.191 v 33.571 c 0,54.968 -32.3,76.958 -71.71,76.958 h -44.8 V 872.23 h 44.8 c 39.41,0 71.71,21.801 71.71,76.961 z m -173.03,163.959 h 101.32 c 77.86,0 128.23,-49.96 128.23,-130.201 v -33.558 c 0,-80.243 -50.18,-130.2 -128.23,-130.2 h -101.32 v 294.149 -0.19" /><path
         id="path28"
         style="fill:#fff;fill-opacity:1;fill-rule:nonzero;stroke:none"
         d="m 2741.51,1113.15 h 196.86 v -52.47 h -140.34 v -64.231 h 127.27 v -51.308 h -127.27 v -73.493 h 140.34 v -52.457 h -196.86 v 294.149 -0.19" /><path
         id="path30"
         style="fill:#fff;fill-opacity:1;fill-rule:nonzero;stroke:none"
         d="m 173.027,541.621 v 33.57 c 0,54.969 -32.297,76.957 -71.711,76.957 H 56.5234 V 464.66 h 44.7926 c 39.414,0 71.711,21.801 71.711,76.961 z M 0,705.582 h 101.316 c 77.864,0 128.235,-49.961 128.235,-130.203 V 541.82 c 0,-80.242 -50.18,-130.199 -128.235,-130.199 L 0,411.621 v 294.149 -0.188" /><path
         id="path32"
         style="fill:#fff;fill-opacity:1;fill-rule:nonzero;stroke:none"
         d="M 426.805,533.719 383.738,695.16 340.484,533.719 Z m 14.613,-54.778 H 325.871 l -18.07,-67.711 h -57.485 l 78.825,294.149 H 438.918 L 516.777,411.23 h -57.48 l -18.074,67.711 h 0.195" /><path
         id="path34"
         style="fill:#fff;fill-opacity:1;fill-rule:nonzero;stroke:none"
         d="m 591.363,653.109 h -84.976 v 52.473 H 733.438 V 653.109 H 647.883 V 411.43 h -56.52 v 241.679" /><path
         id="path36"
         style="fill:#fff;fill-opacity:1;fill-rule:nonzero;stroke:none"
         d="M 899.164,533.719 855.906,695.16 812.844,533.719 Z m 14.609,-54.778 H 798.23 L 780.16,411.23 H 722.676 L 801.5,705.379 H 911.273 L 989.137,411.23 h -57.485 l -18.07,67.711 h 0.191" /><path
         id="path38"
         style="fill:#fff;fill-opacity:1;fill-rule:nonzero;stroke:none"
         d="m 1113.9,463.891 h 59.41 v 189.218 h -59.41 v 52.473 h 176.68 v -52.473 h -60.75 V 463.891 h 60.75 V 411.43 H 1113.9 v 52.461" /><path
         id="path40"
         style="fill:#fff;fill-opacity:1;fill-rule:nonzero;stroke:none"
         d="m 1353.45,705.582 h 108.05 l 75.36,-285.863 v 285.863 h 54.41 V 411.43 h -110.55 l -72.86,283.73 V 411.43 h -54.41 v 294.152" /><path
         id="path42"
         style="fill:#fff;fill-opacity:1;fill-rule:nonzero;stroke:none"
         d="m 1666.82,705.582 h 108.05 l 75.36,-285.863 v 285.863 h 54.41 V 411.43 H 1794.1 l -72.87,283.73 V 411.43 h -54.41 v 294.152" /><path
         id="path44"
         style="fill:#fff;fill-opacity:1;fill-rule:nonzero;stroke:none"
         d="m 2087.28,460.031 c 41.91,0 67.48,25.27 67.48,73.11 v 50.339 c 0,47.84 -25.57,70.981 -67.48,70.981 -41.91,0 -67.48,-23.141 -67.48,-70.981 v -50.339 c 0,-47.84 25.57,-73.11 67.48,-73.11 z m -124.01,73.301 v 50.34 c 0,80.238 50.18,125.769 124.01,125.769 73.82,0 124,-45.332 124,-125.769 v -50.34 c 0,-80.242 -50.18,-125.762 -124,-125.762 -73.83,0 -124.01,45.328 -124.01,125.762" /><path
         id="path46"
         style="fill:#fff;fill-opacity:1;fill-rule:nonzero;stroke:none"
         d="m 2232.04,705.582 h 59.02 l 70.75,-283.742 70.75,283.742 h 59.02 L 2415.83,411.43 h -108.04 l -75.75,294.152" /><path
         id="path48"
         style="fill:#fff;fill-opacity:1;fill-rule:nonzero;stroke:none"
         d="M 2655.57,533.719 2612.5,695.16 2569.25,533.719 Z m 14.61,-54.778 h -115.54 l -18.08,-67.711 h -57.48 l 78.82,294.149 h 109.78 l 77.86,-294.149 h -57.48 l -18.07,67.711 h 0.19" /><path
         id="path50"
         style="fill:#fff;fill-opacity:1;fill-rule:nonzero;stroke:none"
         d="m 2820.13,653.109 h -84.97 v 52.473 h 227.05 v -52.473 h -85.55 V 411.43 h -56.53 v 241.679" /><path
         id="path52"
         style="fill:#fff;fill-opacity:1;fill-rule:nonzero;stroke:none"
         d="m 2997.59,463.891 h 59.4 v 189.218 h -59.4 v 52.473 h 176.87 v -52.473 h -60.75 V 463.891 h 60.75 V 411.43 h -176.87 v 52.461" /><path
         id="path54"
         style="fill:#fff;fill-opacity:1;fill-rule:nonzero;stroke:none"
         d="m 3344.41,460.031 c 41.91,0 67.48,25.27 67.48,73.11 v 50.339 c 0,47.84 -25.57,70.981 -67.48,70.981 -41.91,0 -67.48,-23.141 -67.48,-70.981 v -50.339 c 0,-47.84 25.57,-73.11 67.48,-73.11 z m -124,73.301 v 50.34 c 0,80.238 50.37,125.769 124,125.769 73.63,0 124,-45.332 124,-125.769 v -50.34 c 0,-80.242 -50.37,-125.762 -124,-125.762 -73.63,0 -124,45.328 -124,125.762" /><path
         id="path56"
         style="fill:#fff;fill-opacity:1;fill-rule:nonzero;stroke:none"
         d="m 3527.05,705.582 h 108.04 l 75.37,-285.863 v 285.863 h 54.4 V 411.43 h -110.54 l -72.86,283.73 V 411.43 h -54.41 v 294.152" /><path
         id="path58"
         style="fill:#fff;fill-opacity:1;fill-rule:nonzero;stroke:none"
         d="M 1653.16,127.301 H 1533.78 V 3.66016 h -56.53 V 297.82 h 56.53 V 181.891 h 119.38 V 297.82 h 56.53 V 3.66016 h -56.53 V 127.301" /><path
         id="path60"
         style="fill:#fff;fill-opacity:1;fill-rule:nonzero;stroke:none"
         d="m 1780.83,109.75 v 188.262 h 56.52 V 110.531 c 0,-31.0622 13.07,-58.0622 59.02,-58.0622 45.95,0 59.98,26.8125 59.98,58.0622 v 187.481 h 56.53 V 109.75 C 2012.88,42.0508 1966.35,0 1896.37,0 1826.39,0 1780.83,42.0508 1780.83,109.75" /><path
         id="path62"
         style="fill:#fff;fill-opacity:1;fill-rule:nonzero;stroke:none"
         d="m 2208.97,57.2891 c 25.19,0 39.03,11.3828 39.03,33.9492 0,22.5627 -13.84,33.9527 -39.03,33.9527 h -69.02 V 57.1016 h 69.02 z m -7.11,120.5509 c 26.72,0 35.18,14.66 35.18,35.691 0,15.039 -8.46,31.051 -35.18,31.051 h -61.91 V 177.84 Z m -117.85,120.172 h 131.88 c 47.68,0 79.6,-35.68 79.6,-84.481 0,-25.269 -9.62,-45.332 -23.07,-57.101 16.72,-10.41 33.83,-29.891 33.83,-65.1917 0,-57.0977 -33.07,-87.37892 -90.55,-87.37892 H 2083.82 V 298.012 h 0.19" /><path
         id="path64"
         style="fill:#fff;fill-opacity:1;fill-rule:nonzero;stroke:none"
         d="m 1985.96,1490.24 676.73,1147.29 v -775.99 z m 565.8,1325.32 H 1213.11 l 669.42,367.26 z M 1920.6,2305.57 2597.32,2676.88 1920.6,1529.59 Z m -76.33,-44.56 v -806.65 l -703.45,385.97 z m -38.64,65.97 -703.45,-420.69 v 806.46 l 703.45,-385.96 z m 76.9,44.94 -669.23,367.26 h 1338.46 z m 0,898.08 -856.48,-470.06 v -983.72 l 856.48,-470.07 856.48,470.07 v 983.72 L 1882.53,3270" /></g></g></svg>