<?xml version="1.0" encoding="utf-8"?>
<!-- Generator: Adobe Illustrator 28.2.0, SVG Export Plug-In . SVG Version: 6.00 Build 0)  -->
<svg version="1.1"
	 id="svg2" xmlns:dc="http://purl.org/dc/elements/1.1/" xmlns:svg="http://www.w3.org/2000/svg" xmlns:rdf="http://www.w3.org/1999/02/22-rdf-syntax-ns#" xmlns:cc="http://creativecommons.org/ns#"
	 xmlns="http://www.w3.org/2000/svg" xmlns:xlink="http://www.w3.org/1999/xlink" x="0px" y="0px" viewBox="0 0 228.4 256.5"
	 style="enable-background:new 0 0 228.4 256.5;" xml:space="preserve">
<style type="text/css">
	.st0{fill:#fff;}
</style>
<g id="g10" transform="matrix(1.3333333,0,0,-1.3333333,0,436)">
	<g id="g12" transform="scale(0.1)">
		<path id="path64" class="st0" d="M960,1490.2l676.7,1147.3v-776L960,1490.2z M1525.8,2815.6H187.1l669.4,367.3L1525.8,2815.6z
			 M894.6,2305.6l676.7,371.3L894.6,1529.6L894.6,2305.6L894.6,2305.6z M818.3,2261v-806.7l-703.5,386L818.3,2261z M779.6,2327
			L76.1,1906.3v806.5l703.5-386V2327z M856.5,2371.9l-669.2,367.3h1338.5L856.5,2371.9z M856.5,3270L0,2799.9v-983.7l856.5-470.1
			l856.5,470.1v983.7L856.5,3270"/>
	</g>
</g>
</svg>
