<?xml version="1.0" encoding="UTF-8" standalone="no"?>
<!-- Created with Inkscape (http://www.inkscape.org/) -->

<svg
   version="1.1"
   id="svg2"
   width="262.95999"
   height="304.69333"
   viewBox="0 0 262.95999 304.69333"
   sodipodi:docname="1.2. Sekundarni znak boja(1).eps"
   xmlns:inkscape="http://www.inkscape.org/namespaces/inkscape"
   xmlns:sodipodi="http://sodipodi.sourceforge.net/DTD/sodipodi-0.dtd"
   xmlns="http://www.w3.org/2000/svg"
   xmlns:svg="http://www.w3.org/2000/svg">
  <defs
     id="defs6" />
  <sodipodi:namedview
     id="namedview4"
     pagecolor="#ffffff"
     bordercolor="#000000"
     borderopacity="0.25"
     inkscape:showpageshadow="2"
     inkscape:pageopacity="0.0"
     inkscape:pagecheckerboard="0"
     inkscape:deskcolor="#d1d1d1" />
  <g
     id="g8"
     inkscape:groupmode="layer"
     inkscape:label="ink_ext_XXXXXX"
     transform="matrix(1.3333333,0,0,-1.3333333,0,304.69333)">
    <g
       id="g10"
       transform="scale(0.1)">
      <path
         d="m 954.805,1168.39 v -118.78 c -59.539,12.36 -106.426,59.24 -118.782,118.78 z m 0,181.34 V 1230.95 H 836.023 c 12.356,59.54 59.243,106.44 118.782,118.78 z m 62.555,-181.34 h 118.78 c -12.34,-59.54 -59.24,-106.42 -118.78,-118.78 z m 0,181.34 c 59.54,-12.34 106.44,-59.24 118.78,-118.78 h -118.78 z m 324.69,100.96 v 187.67 H 630.129 V 761 h 711.921 v 187.672 h -62.56 V 823.551 H 692.676 v 344.839 h 79.875 c 13.672,-94.14 88.101,-168.57 182.254,-182.242 V 948.672 H 830.48 v -62.563 h 311.21 v 62.563 h -124.33 v 37.476 c 94.15,13.672 168.59,88.102 182.26,182.242 h 79.87 v -118.78 h 62.56 v 300.12 h -62.56 v -118.78 h -79.87 c -13.67,94.15 -88.11,168.59 -182.26,182.26 v 37.48 h 124.33 v 62.55 H 830.48 v -62.55 h 124.325 v -37.48 C 860.652,1399.54 786.23,1325.1 772.551,1230.95 h -79.875 v 344.85 h 586.814 v -125.11 h 62.56"
         style="fill:#a81f36;fill-opacity:1;fill-rule:nonzero;stroke:none"
         id="path12" />
      <path
         d="M 986.086,551.422 C 631.34,551.422 343.75,839 343.75,1193.76 c 0,354.75 287.59,642.33 642.336,642.33 354.754,0 642.334,-287.58 642.334,-642.33 0,-354.76 -287.58,-642.338 -642.334,-642.338 z M 1760.61,1593.45 c -344.22,89.05 -351.1,259.51 -358.37,285.46 l -4.37,87.79 c 0,1.72 -381.47,125.56 -381.47,125.56 -89.005,-243.16 -255.287,-126.72 -255.287,-126.72 -47.441,-17.12 -260.144,-77.06 -289.258,-106.17 -35.964,-327.1 -260.3,-318.53 -260.3,-318.53 L 232.102,813.012 C 455.945,689.199 535.215,467.891 535.215,467.891 c 136.101,0.429 308.476,43.937 195.234,-269.2 -2.961,-8.171 485.871,-7.082 483.981,0 -70.48,264.899 -45.67,262.848 165.06,304.161 140.43,269.058 342.51,275.91 342.51,275.91 0,0 39.5,708.548 38.61,814.688"
         style="fill:#a81f36;fill-opacity:1;fill-rule:nonzero;stroke:none"
         id="path14" />
    </g>
  </g>
</svg>
