<?xml version="1.0" encoding="UTF-8" standalone="no"?>
<svg
   xmlns:dc="http://purl.org/dc/elements/1.1/"
   xmlns:cc="http://creativecommons.org/ns#"
   xmlns:rdf="http://www.w3.org/1999/02/22-rdf-syntax-ns#"
   xmlns:svg="http://www.w3.org/2000/svg"
   xmlns="http://www.w3.org/2000/svg"
   viewBox="0 0 536.71997 228.44"
   height="228.44"
   width="536.71997"
   xml:space="preserve"
   id="svg2"
   version="1.1"><metadata
     id="metadata8"><rdf:RDF><cc:Work
         rdf:about=""><dc:format>image/svg+xml</dc:format><dc:type
           rdf:resource="http://purl.org/dc/dcmitype/StillImage" /></cc:Work></rdf:RDF></metadata><defs
     id="defs6" /><g
     transform="matrix(1.3333333,0,0,-1.3333333,0,228.44)"
     id="g10"><g
       transform="scale(0.1)"
       id="g12"><path
         id="path14"
         style="fill:#a81f36;fill-opacity:1;fill-rule:nonzero;stroke:none"
         d="m 718.281,873.914 v -81.629 c -40.918,8.485 -73.144,40.711 -81.633,81.629 z m 0,124.621 v -81.633 h -81.633 c 8.489,40.918 40.715,73.149 81.633,81.633 z M 761.27,873.914 h 81.628 c -8.484,-40.918 -40.71,-73.144 -81.628,-81.629 z m 0,124.621 c 40.918,-8.484 73.144,-40.715 81.628,-81.633 H 761.27 Z m 223.132,69.375 v 128.97 H 495.145 V 593.941 H 984.402 V 722.91 H 941.414 V 636.922 H 538.133 v 236.992 h 54.894 c 9.395,-64.703 60.547,-115.859 125.254,-125.254 v -25.75 h -85.449 v -43 h 213.875 v 43 H 761.27 v 25.75 c 64.707,9.395 115.847,60.551 125.253,125.254 h 54.891 v -81.629 h 42.988 v 206.25 h -42.988 v -81.633 h -54.891 c -9.406,64.707 -60.546,115.858 -125.253,125.258 v 25.75 h 85.437 v 42.99 H 632.832 v -42.99 h 85.449 v -25.75 c -64.707,-9.4 -115.859,-60.551 -125.254,-125.258 h -54.894 v 236.988 h 403.281 v -85.98 h 42.988" /><path
         id="path16"
         style="fill:#a81f36;fill-opacity:1;fill-rule:nonzero;stroke:none"
         d="m 739.773,449.898 c -243.796,0 -441.433,197.641 -441.433,441.442 0,243.8 197.637,441.43 441.433,441.43 243.801,0 441.437,-197.63 441.437,-441.43 0,-243.801 -197.636,-441.442 -441.437,-441.442 z m 532.277,716.122 c -236.55,61.21 -241.29,178.36 -246.29,196.19 l -3,60.33 c 0,1.18 -262.155,86.28 -262.155,86.28 -61.171,-167.11 -175.437,-87.08 -175.437,-87.08 -32.609,-11.77 -178.781,-52.96 -198.793,-72.97 C 361.66,1123.98 207.488,1129.86 207.488,1129.86 L 221.609,629.68 C 375.449,544.602 429.922,392.5 429.922,392.5 c 93.535,0.289 211.992,30.199 134.168,-185 -2.031,-5.621 333.906,-4.871 332.609,0 -48.437,182.051 -31.386,180.629 113.441,209.02 96.5,184.921 235.38,189.621 235.38,189.621 0,0 27.15,486.929 26.53,559.879" /><path
         id="path18"
         style="fill:#a81f36;fill-opacity:1;fill-rule:nonzero;stroke:none"
         d="m 3474.59,1043.55 c 1.07,-1.17 2.61,-1.84 4.2,-1.84 h 16.36 c 1.6,0 3.12,0.67 4.2,1.84 l 31.05,30.23 c 1.56,1.68 1.99,4.12 1.07,6.22 -0.91,2.11 -2.98,3.47 -5.28,3.47 h -17.58 c -1.58,0 -3.08,-0.65 -4.18,-1.79 l -17.5,-15.25 -17.7,14.82 c -1.1,1.13 -2.58,1.76 -4.14,1.76 h -17.18 c -2.3,0 -4.37,-1.36 -5.28,-3.47 -0.92,-2.1 -0.49,-4.54 1.07,-6.22 l 30.89,-29.77" /><path
         id="path20"
         style="fill:#656263;fill-opacity:1;fill-rule:nonzero;stroke:none"
         d="m 1460.97,1331.7 v -118.51 c 0,-26.78 8.11,-34.9 17.32,-34.9 10.27,0 17.59,7.32 17.59,34.9 v 118.51 h 35.44 v -112.29 c 0,-46.79 -17.59,-72.23 -52.76,-72.23 -38.15,0 -53.04,26.24 -53.04,71.96 v 112.56 h 35.45" /><path
         id="path22"
         style="fill:#656263;fill-opacity:1;fill-rule:nonzero;stroke:none"
         d="m 1561.82,1149.34 v 182.36 h 32.47 l 28.13,-71.44 c 5.4,-14.05 14.34,-37.6 19.48,-53.29 h 0.54 c -1.08,19.21 -3.51,50.87 -3.51,84.42 v 40.31 h 31.12 v -182.36 h -32.47 l -27.88,69.26 c -5.95,15.43 -14.34,38.43 -18.4,54.92 h -0.54 c 0.81,-18.39 2.17,-46.53 2.17,-83.05 v -41.13 h -31.11" /><path
         id="path24"
         style="fill:#656263;fill-opacity:1;fill-rule:nonzero;stroke:none"
         d="m 1736.79,1331.7 v -182.36 h -35.46 v 182.36 h 35.46" /><path
         id="path26"
         style="fill:#656263;fill-opacity:1;fill-rule:nonzero;stroke:none"
         d="m 1793.83,1149.34 -40.86,182.36 h 39.23 l 12.99,-78.73 c 3.25,-19.49 7.04,-41.95 9.47,-63.31 h 0.53 c 2.45,21.64 5.42,43.56 8.67,64.11 l 12.45,77.93 h 38.96 l -41.68,-182.36 h -39.76" /><path
         id="path28"
         style="fill:#656263;fill-opacity:1;fill-rule:nonzero;stroke:none"
         d="m 1967.72,1229.43 h -41.67 v -49.25 h 47.08 v -30.84 h -82.52 v 182.36 h 79.27 v -30.84 h -43.83 v -41.93 h 41.67 v -29.5" /><path
         id="path30"
         style="fill:#656263;fill-opacity:1;fill-rule:nonzero;stroke:none"
         d="m 2032.6,1249.44 h 6.22 c 15.43,0 24.35,12.45 24.35,28.42 0,15.42 -6.23,26.52 -22.18,27.05 -2.98,0 -6.5,-0.26 -8.39,-1.08 z m -35.45,79.55 c 11.09,2.17 25.16,3.53 38.7,3.53 19.48,0 36.8,-2.72 48.7,-13.54 11.09,-10 14.34,-22.18 14.34,-37.88 0,-19.48 -9.48,-37.06 -28.15,-45.71 v -0.55 c 12.45,-4.88 18.67,-16.51 22.2,-35.99 3.51,-20.29 8.38,-42.75 11.63,-49.51 h -37.06 c -2.17,5.13 -6.23,23.53 -8.94,43.56 -3.24,22.73 -8.92,29.23 -20.84,29.23 h -5.13 v -72.79 h -35.45 v 179.65" /><path
         id="path32"
         style="fill:#656263;fill-opacity:1;fill-rule:nonzero;stroke:none"
         d="m 2111.52,1170.18 57.64,129.87 v 0.81 h -52.22 v 30.84 h 92.27 v -26.24 L 2154.01,1181 v -0.82 h 54.93 v -30.84 h -97.42 v 20.84" /><path
         id="path34"
         style="fill:#656263;fill-opacity:1;fill-rule:nonzero;stroke:none"
         d="m 2264.34,1331.7 v -182.36 h -35.44 v 182.36 h 35.44" /><path
         id="path36"
         style="fill:#656263;fill-opacity:1;fill-rule:nonzero;stroke:none"
         d="m 2315.69,1298.96 h -32.19 v 32.74 h 100.1 v -32.74 h -32.47 v -149.62 h -35.44 v 149.62" /><path
         id="path38"
         style="fill:#656263;fill-opacity:1;fill-rule:nonzero;stroke:none"
         d="m 2479.33,1229.43 h -41.67 v -49.25 h 47.08 v -30.84 h -82.52 v 182.36 h 79.26 v -30.84 h -43.82 v -41.93 h 41.67 v -29.5" /><path
         id="path40"
         style="fill:#656263;fill-opacity:1;fill-rule:nonzero;stroke:none"
         d="m 2528.51,1298.96 h -32.2 v 32.74 h 100.11 v -32.74 h -32.48 v -149.62 h -35.43 v 149.62" /><path
         id="path42"
         style="fill:#656263;fill-opacity:1;fill-rule:nonzero;stroke:none"
         d="m 2692.37,1331.7 v -118.51 c 0,-26.78 8.12,-34.9 17.32,-34.9 10.28,0 17.58,7.32 17.58,34.9 v 118.51 h 35.45 v -112.29 c 0,-46.79 -17.58,-72.23 -52.77,-72.23 -38.14,0 -53.02,26.24 -53.02,71.96 v 112.56 h 35.44" /><path
         id="path44"
         style="fill:#656263;fill-opacity:1;fill-rule:nonzero;stroke:none"
         d="m 2871.66,1175.85 c 2.16,-0.54 4.6,-0.54 7.83,-0.54 14.35,0 26.25,8.66 26.25,27.33 0,18.13 -12.44,27.59 -26.5,27.87 h -7.58 z m 0,80.91 h 7.58 c 12.7,0 22.45,10.82 22.45,25.7 0,13.26 -6.22,23.54 -20.84,23.54 -3.78,0 -7.03,-0.28 -9.19,-1.09 z m -35.46,72.23 c 10.83,2.44 24.9,3.53 40.32,3.53 17.05,0 33.56,-2.17 46.26,-12.99 9.76,-8.12 13.81,-20.3 13.81,-33.02 0,-16.23 -8.38,-31.92 -26.51,-39.76 v -1.09 c 21.1,-5.94 32.46,-23.53 32.46,-43.56 0,-15.16 -4.86,-26.79 -13.52,-35.71 -10.83,-11.92 -29.23,-18.41 -59.8,-18.41 -13.54,0 -24.89,0.82 -33.02,1.9 v 179.11" /><path
         id="path46"
         style="fill:#656263;fill-opacity:1;fill-rule:nonzero;stroke:none"
         d="m 3043.93,1229.43 h -41.66 v -49.25 h 47.07 v -30.84 h -82.53 v 182.36 h 79.27 v -30.84 h -43.81 v -41.93 h 41.66 v -29.5" /><path
         id="path48"
         style="fill:#656263;fill-opacity:1;fill-rule:nonzero;stroke:none"
         d="m 3101.22,1240.53 c 0,-41.41 7.83,-62.51 22.18,-62.51 14.89,0 20.56,27.06 20.56,64.12 0,31.93 -4.87,60.89 -20.83,60.89 -14.08,0 -21.91,-23.28 -21.91,-62.5 z m 79.81,3.24 c 0,-68.73 -24.35,-96.59 -58.99,-96.59 -41.39,0 -57.63,43.83 -57.63,93.88 0,49.79 19.76,92.81 60.07,92.81 44.11,0 56.55,-48.44 56.55,-90.1" /><path
         id="path50"
         style="fill:#656263;fill-opacity:1;fill-rule:nonzero;stroke:none"
         d="m 3304.61,1154.2 c -7.85,-3.23 -24.62,-6.49 -37.88,-6.49 -20.84,0 -36.53,5.96 -48.7,18.14 -15.7,15.15 -24.1,42.2 -23.55,73.59 0.81,66.28 38.69,93.89 77.38,93.89 13.8,0 24.09,-2.7 29.77,-5.41 l -6.22,-30.58 c -5.15,2.71 -11.91,4.05 -20.83,4.05 -24.09,0 -43.29,-16.49 -43.29,-64.12 0,-43.83 17.04,-59.52 33.54,-59.52 3.26,0 5.68,0.27 7.03,0.81 v 44.1 h -16.23 v 28.95 h 48.98 v -97.41" /><path
         id="path52"
         style="fill:#656263;fill-opacity:1;fill-rule:nonzero;stroke:none"
         d="m 3366.49,1249.44 h 6.22 c 15.42,0 24.35,12.45 24.35,28.42 0,15.42 -6.22,26.52 -22.19,27.05 -2.97,0 -6.49,-0.26 -8.38,-1.08 z m -35.45,79.55 c 11.09,2.17 25.16,3.53 38.7,3.53 19.48,0 36.79,-2.72 48.7,-13.54 11.08,-10 14.34,-22.18 14.34,-37.88 0,-19.48 -9.48,-37.06 -28.13,-45.71 v -0.55 c 12.43,-4.88 18.65,-16.51 22.18,-35.99 3.51,-20.29 8.38,-42.75 11.63,-49.51 h -37.07 c -2.17,5.13 -6.22,23.53 -8.93,43.56 -3.24,22.73 -8.93,29.23 -20.83,29.23 h -5.14 v -72.79 h -35.45 v 179.65" /><path
         id="path54"
         style="fill:#656263;fill-opacity:1;fill-rule:nonzero;stroke:none"
         d="m 3516.56,1218.6 -5.95,38.16 c -1.88,11.09 -4.32,29.22 -5.94,41.39 h -0.82 c -1.89,-12.17 -4.6,-31.12 -6.5,-41.67 l -6.76,-37.88 z m -29.48,-27.59 -8.13,-41.67 h -34.35 l 39.49,182.36 h 42.49 l 35.44,-182.36 h -34.36 l -7.84,41.67 h -32.74" /><path
         id="path56"
         style="fill:#656263;fill-opacity:1;fill-rule:nonzero;stroke:none"
         d="m 3617.42,1177.48 c 1.62,-0.54 4.33,-0.54 6.22,-0.54 17.04,0 31.94,16.77 31.94,67.1 0,37.34 -9.76,60.06 -31.13,60.06 -2.44,0 -4.86,0 -7.03,-0.8 z m -35.44,151.51 c 8.92,2.17 21.91,3.53 35.98,3.53 23,0 38.96,-5.41 50.6,-16.23 15.69,-14.07 23.81,-38.16 23.81,-73.61 0,-36.79 -9.48,-63.04 -25.44,-77.11 -12.17,-11.9 -30.3,-17.59 -55.74,-17.59 -11.08,0 -22.18,1.08 -29.21,1.9 v 179.11" /><path
         id="path58"
         style="fill:#656263;fill-opacity:1;fill-rule:nonzero;stroke:none"
         d="m 3749.11,1331.7 v -118.51 c 0,-26.78 8.11,-34.9 17.32,-34.9 10.27,0 17.58,7.32 17.58,34.9 v 118.51 h 35.44 v -112.29 c 0,-46.79 -17.59,-72.23 -52.75,-72.23 -38.16,0 -53.05,26.24 -53.05,71.96 v 112.56 h 35.46" /><path
         id="path60"
         style="fill:#a81f36;fill-opacity:1;fill-rule:nonzero;stroke:none"
         d="m 1544.16,1060.68 h -112.88 c -3.18,0 -5.76,-2.59 -5.76,-5.77 V 768.641 c 0,-3.18 2.58,-5.758 5.76,-5.758 h 112.88 c 3.18,0 5.76,2.578 5.76,5.758 v 17.16 c 0,3.183 -2.58,5.762 -5.76,5.762 h -88.32 v 107.91 h 72.37 c 3.19,0 5.75,2.578 5.75,5.761 v 17.168 c 0,3.184 -2.56,5.762 -5.75,5.762 h -72.37 v 103.826 h 88.32 c 3.18,0 5.76,2.57 5.76,5.75 v 17.17 c 0,3.18 -2.58,5.77 -5.76,5.77" /><path
         id="path62"
         style="fill:#a81f36;fill-opacity:1;fill-rule:nonzero;stroke:none"
         d="m 1696.35,791.563 h -84.23 v 263.347 c 0,3.18 -2.58,5.77 -5.76,5.77 h -18.81 c -3.19,0 -5.76,-2.59 -5.76,-5.77 V 768.641 c 0,-3.18 2.57,-5.758 5.76,-5.758 h 108.8 c 3.18,0 5.76,2.578 5.76,5.758 v 17.16 c 0,3.183 -2.58,5.762 -5.76,5.762" /><path
         id="path64"
         style="fill:#a81f36;fill-opacity:1;fill-rule:nonzero;stroke:none"
         d="m 1850.17,1060.68 h -112.89 c -3.18,0 -5.76,-2.59 -5.76,-5.77 V 768.641 c 0,-3.18 2.58,-5.758 5.76,-5.758 h 112.89 c 3.18,0 5.76,2.578 5.76,5.758 v 17.16 c 0,3.183 -2.58,5.762 -5.76,5.762 h -88.32 v 107.91 h 72.37 c 3.18,0 5.75,2.578 5.75,5.761 v 17.168 c 0,3.184 -2.57,5.762 -5.75,5.762 h -72.37 v 103.826 h 88.32 c 3.18,0 5.76,2.57 5.76,5.75 v 17.17 c 0,3.18 -2.58,5.77 -5.76,5.77" /><path
         id="path66"
         style="fill:#a81f36;fill-opacity:1;fill-rule:nonzero;stroke:none"
         d="m 1962.87,921.492 80,130.398 c 1.09,1.78 1.13,4.02 0.13,5.83 -1.03,1.83 -2.95,2.96 -5.03,2.96 h -19.64 c -2,0 -3.86,-1.04 -4.91,-2.74 l -82.58,-134.026 v 130.996 c 0,3.18 -2.57,5.77 -5.75,5.77 h -18.81 c -3.18,0 -5.76,-2.59 -5.76,-5.77 V 768.641 c 0,-3.18 2.58,-5.758 5.76,-5.758 h 18.81 c 3.18,0 5.75,2.578 5.75,5.758 v 101.808 l 13.7,21.668 74.13,-126.394 c 1.04,-1.77 2.93,-2.84 4.97,-2.84 h 19.65 c 2.04,0 3.95,1.09 4.98,2.871 1.03,1.754 1.04,3.953 0.02,5.73 l -85.42,150.008" /><path
         id="path68"
         style="fill:#a81f36;fill-opacity:1;fill-rule:nonzero;stroke:none"
         d="m 2210.59,1060.68 h -135.37 c -3.18,0 -5.76,-2.59 -5.76,-5.77 v -17.17 c 0,-3.18 2.58,-5.75 5.76,-5.75 h 52.73 V 768.641 c 0,-3.18 2.58,-5.758 5.76,-5.758 h 18.81 c 3.18,0 5.75,2.578 5.75,5.758 v 263.349 h 52.32 c 3.18,0 5.75,2.57 5.75,5.75 v 17.17 c 0,3.18 -2.57,5.77 -5.75,5.77" /><path
         id="path70"
         style="fill:#a81f36;fill-opacity:1;fill-rule:nonzero;stroke:none"
         d="m 2285.13,1031.99 h 34.73 c 13.59,0 23.18,-3.58 28.56,-10.63 5.72,-7.49 8.62,-18.5 8.62,-32.7 v -26.988 c 0,-8.789 -1.1,-16.067 -3.28,-21.633 -2.05,-5.254 -4.95,-9.394 -8.61,-12.285 -3.8,-2.981 -8.57,-5.09 -14.19,-6.25 -6.07,-1.27 -13.24,-1.914 -21.32,-1.914 h -24.51 z m 103.41,-246.435 c -0.78,5.824 -1.17,11.691 -1.17,17.433 v 44.578 c 0,16.575 -3.53,30.547 -10.51,41.516 -4.58,7.234 -11.03,12.922 -19.29,17.051 19.79,10.215 29.8,30.058 29.8,59.219 v 24.949 c 0,21.479 -5.26,38.669 -15.64,51.129 -10.64,12.78 -27.95,19.25 -51.46,19.25 h -59.7 c -3.19,0 -5.77,-2.59 -5.77,-5.77 V 768.641 c 0,-3.18 2.58,-5.758 5.77,-5.758 h 18.8 c 3.18,0 5.76,2.578 5.76,5.758 v 122.226 h 24.1 c 7.71,0 14.71,-0.691 20.78,-2.078 5.71,-1.32 10.67,-3.586 14.76,-6.738 3.97,-3.047 6.91,-7.121 8.99,-12.461 2.18,-5.559 3.28,-12.844 3.28,-21.621 v -44.981 c 0,-8.117 0.44,-15.09 1.3,-20.715 0.93,-6.023 2.81,-11.558 5.6,-16.484 1.02,-1.797 2.93,-2.906 5,-2.906 h 19.62 c 2.11,0 4.06,1.148 5.06,3.015 1.02,1.856 0.93,4.102 -0.23,5.879 -2.51,3.856 -4.14,8.504 -4.85,13.778" /><path
         id="path72"
         style="fill:#a81f36;fill-opacity:1;fill-rule:nonzero;stroke:none"
         d="M 2544.03,986.219 V 837.336 c 0,-14.301 -3.17,-26.215 -9.43,-35.402 -5.86,-8.633 -15.47,-12.832 -29.38,-12.832 -13.86,0 -23.34,4.168 -28.94,12.742 -6.02,9.203 -9.06,21.152 -9.06,35.492 v 148.883 c 0,14.331 3.04,26.291 9.08,35.491 5.58,8.57 15.06,12.74 28.92,12.74 13.91,0 23.52,-4.2 29.39,-12.83 6.25,-9.2 9.42,-21.1 9.42,-35.401 z m 13.92,54.141 c -5.78,7.11 -13.17,12.75 -21.92,16.74 -17.56,8.02 -44.23,8.01 -61.45,-0.02 -8.65,-4.01 -15.9,-9.66 -21.52,-16.79 -5.49,-6.95 -9.62,-15.34 -12.28,-24.93 -2.59,-9.35 -3.91,-19.571 -3.91,-30.38 V 838.574 c 0,-10.812 1.32,-21.023 3.9,-30.371 2.66,-9.57 6.78,-17.969 12.28,-24.933 5.59,-7.118 12.84,-12.774 21.52,-16.797 8.63,-4.024 18.95,-6.051 30.65,-6.051 11.68,0 22.05,2.027 30.8,6.031 8.8,4.016 16.19,9.641 21.95,16.762 5.65,7.008 9.87,15.418 12.5,24.976 2.59,9.309 3.9,19.524 3.9,30.383 V 984.98 c 0,10.848 -1.31,21.07 -3.9,30.38 -2.66,9.59 -6.86,17.99 -12.52,25" /><path
         id="path74"
         style="fill:#a81f36;fill-opacity:1;fill-rule:nonzero;stroke:none"
         d="m 2738.78,1060.68 h -135.36 c -3.19,0 -5.76,-2.59 -5.76,-5.77 v -17.17 c 0,-3.18 2.57,-5.75 5.76,-5.75 h 52.72 V 768.641 c 0,-3.18 2.58,-5.758 5.76,-5.758 h 18.81 c 3.19,0 5.76,2.578 5.76,5.758 v 263.349 h 52.31 c 3.18,0 5.76,2.57 5.76,5.75 v 17.17 c 0,3.18 -2.58,5.77 -5.76,5.77" /><path
         id="path76"
         style="fill:#a81f36;fill-opacity:1;fill-rule:nonzero;stroke:none"
         d="m 2901.63,1060.68 h -112.87 c -3.18,0 -5.76,-2.59 -5.76,-5.77 V 768.641 c 0,-3.18 2.58,-5.758 5.76,-5.758 h 112.87 c 3.18,0 5.76,2.578 5.76,5.758 v 17.16 c 0,3.183 -2.58,5.762 -5.76,5.762 h -88.31 v 107.91 h 72.35 c 3.19,0 5.76,2.578 5.76,5.761 v 17.168 c 0,3.184 -2.57,5.762 -5.76,5.762 h -72.35 v 103.826 h 88.31 c 3.18,0 5.76,2.57 5.76,5.75 v 17.17 c 0,3.18 -2.58,5.77 -5.76,5.77" /><path
         id="path78"
         style="fill:#a81f36;fill-opacity:1;fill-rule:nonzero;stroke:none"
         d="m 3084.93,1060.68 h -19.21 c -3.18,0 -5.76,-2.59 -5.76,-5.77 V 926.121 h -77.66 v 128.789 c 0,3.18 -2.57,5.77 -5.76,5.77 h -18.81 c -3.17,0 -5.75,-2.59 -5.75,-5.77 V 768.641 c 0,-3.18 2.58,-5.758 5.75,-5.758 h 18.81 c 3.19,0 5.76,2.578 5.76,5.758 V 897.43 h 77.66 V 768.641 c 0,-3.18 2.58,-5.758 5.76,-5.758 h 19.21 c 3.18,0 5.76,2.578 5.76,5.758 v 286.269 c 0,3.18 -2.58,5.77 -5.76,5.77" /><path
         id="path80"
         style="fill:#a81f36;fill-opacity:1;fill-rule:nonzero;stroke:none"
         d="m 3277.11,1060.68 h -17.18 c -3.18,0 -5.76,-2.59 -5.76,-5.77 V 846.621 l -74.71,210.219 c -0.81,2.3 -2.98,3.84 -5.42,3.84 h -24.53 c -3.18,0 -5.76,-2.59 -5.76,-5.77 V 768.641 c 0,-3.18 2.58,-5.758 5.76,-5.758 h 17.19 c 3.18,0 5.76,2.578 5.76,5.758 v 221.386 l 78.36,-223.3 c 0.81,-2.301 2.99,-3.844 5.43,-3.844 h 20.86 c 3.18,0 5.75,2.578 5.75,5.758 v 286.269 c 0,3.18 -2.57,5.77 -5.75,5.77" /><path
         id="path82"
         style="fill:#a81f36;fill-opacity:1;fill-rule:nonzero;stroke:none"
         d="m 3361.19,1060.68 h -18.81 c -3.18,0 -5.76,-2.59 -5.76,-5.77 V 768.641 c 0,-3.18 2.58,-5.758 5.76,-5.758 h 18.81 c 3.18,0 5.75,2.578 5.75,5.758 v 286.269 c 0,3.18 -2.57,5.77 -5.75,5.77" /><path
         id="path84"
         style="fill:#a81f36;fill-opacity:1;fill-rule:nonzero;stroke:none"
         d="m 3538.93,1014.85 c -5.6,7.1 -12.75,12.74 -21.26,16.78 -8.52,4.02 -18.78,6.07 -30.48,6.07 -11.72,0 -21.99,-2.05 -30.5,-6.07 -8.53,-4.04 -15.67,-9.69 -21.28,-16.79 -5.51,-7.01 -9.57,-15.414 -12.08,-25.004 -2.43,-9.301 -3.67,-19.504 -3.67,-30.305 V 838.574 c 0,-10.812 1.24,-21.008 3.67,-30.293 2.5,-9.59 6.57,-18 12.08,-25.011 5.58,-7.098 12.74,-12.743 21.28,-16.778 8.54,-4.031 18.8,-6.07 30.5,-6.07 11.69,0 21.93,2.039 30.47,6.07 8.53,4.024 15.7,9.668 21.27,16.77 5.52,7.019 9.59,15.429 12.09,25.019 2.44,9.285 3.68,19.481 3.68,30.293 v 32.727 c 0,3.179 -2.58,5.758 -5.77,5.758 h -17.98 c -3.19,0 -5.77,-2.579 -5.77,-5.758 v -33.965 c 0,-7.141 -0.7,-13.867 -2.09,-19.984 -1.32,-5.719 -3.54,-10.704 -6.6,-14.825 -2.97,-4.011 -6.82,-7.226 -11.42,-9.519 -9.28,-4.629 -25.72,-4.621 -34.94,-0.02 -4.62,2.313 -8.46,5.528 -11.46,9.539 -3.06,4.133 -5.27,9.106 -6.57,14.825 -1.39,6.074 -2.1,12.793 -2.1,19.984 v 123.445 c 0,7.18 0.71,13.895 2.1,19.989 1.31,5.703 3.53,10.793 6.62,15.089 3,4.161 6.74,7.321 11.38,9.651 9.34,4.62 25.59,4.63 34.95,0.01 4.67,-2.34 8.41,-5.5 11.38,-9.661 3.1,-4.296 5.34,-9.375 6.66,-15.097 1.39,-6.125 2.09,-12.852 2.09,-19.981 v -24.972 c 0,-3.18 2.58,-5.758 5.77,-5.758 h 17.98 c 3.19,0 5.77,2.578 5.77,5.758 v 23.722 c 0,10.801 -1.24,21.004 -3.68,30.321 -2.5,9.574 -6.57,17.978 -12.09,24.998" /><path
         id="path86"
         style="fill:#a81f36;fill-opacity:1;fill-rule:nonzero;stroke:none"
         d="m 3661.64,921.492 80,130.398 c 1.09,1.78 1.13,4.02 0.13,5.83 -1.03,1.83 -2.95,2.96 -5.03,2.96 h -19.63 c -2,0 -3.86,-1.04 -4.9,-2.74 l -82.6,-134.026 v 130.996 c 0,3.18 -2.57,5.77 -5.75,5.77 h -18.81 c -3.19,0 -5.76,-2.59 -5.76,-5.77 V 768.641 c 0,-3.18 2.57,-5.758 5.76,-5.758 h 18.81 c 3.18,0 5.75,2.578 5.75,5.758 v 101.808 l 13.7,21.668 74.13,-126.394 c 1.04,-1.77 2.93,-2.84 4.97,-2.84 h 19.65 c 2.04,0 3.95,1.09 4.98,2.871 1.03,1.754 1.04,3.953 0.02,5.73 l -85.42,150.008" /><path
         id="path88"
         style="fill:#a81f36;fill-opacity:1;fill-rule:nonzero;stroke:none"
         d="m 3814.51,1060.68 h -18.81 c -3.18,0 -5.76,-2.59 -5.76,-5.77 V 768.641 c 0,-3.18 2.58,-5.758 5.76,-5.758 h 18.81 c 3.18,0 5.76,2.578 5.76,5.758 v 286.269 c 0,3.18 -2.58,5.77 -5.76,5.77" /><path
         id="path90"
         style="fill:#a81f36;fill-opacity:1;fill-rule:nonzero;stroke:none"
         d="m 1540.08,692.309 h -108.8 c -3.18,0 -5.76,-2.571 -5.76,-5.758 v -286.27 c 0,-3.179 2.58,-5.761 5.76,-5.761 h 18.81 c 3.18,0 5.75,2.582 5.75,5.761 v 123.867 h 68.28 c 3.18,0 5.76,2.582 5.76,5.762 v 17.192 c 0,3.179 -2.58,5.757 -5.76,5.757 h -68.28 v 110.77 h 84.24 c 3.18,0 5.76,2.57 5.76,5.75 v 17.172 c 0,3.187 -2.58,5.758 -5.76,5.758" /><path
         id="path92"
         style="fill:#a81f36;fill-opacity:1;fill-rule:nonzero;stroke:none"
         d="m 1682.59,485.781 h -69.04 l 34.19,153.289 z m -20.6,206.949 h -27.4 c -2.72,0 -5.05,-1.89 -5.63,-4.539 L 1566.4,401.5 c -0.38,-1.699 0.04,-3.469 1.14,-4.828 1.08,-1.363 2.74,-2.152 4.48,-2.152 h 17.18 c 2.68,0 5.03,1.871 5.61,4.492 l 13.3,58.886 h 79.96 l 13.31,-58.886 c 0.58,-2.621 2.92,-4.492 5.61,-4.492 h 18.81 c 1.74,0 3.4,0.8 4.48,2.16 1.11,1.359 1.53,3.152 1.15,4.851 l -63.81,286.688 c -0.59,2.633 -2.92,4.511 -5.63,4.511" /><path
         id="path94"
         style="fill:#a81f36;fill-opacity:1;fill-rule:nonzero;stroke:none"
         d="m 1836.44,553.129 80.01,130.41 c 1.1,1.781 1.14,4.012 0.13,5.82 -1.02,1.832 -2.95,2.95 -5.03,2.95 h -19.64 c -2,0 -3.85,-1.028 -4.91,-2.731 l -82.59,-134.019 v 130.992 c 0,3.187 -2.57,5.758 -5.76,5.758 h -18.79 c -3.18,0 -5.76,-2.571 -5.76,-5.758 v -286.27 c 0,-3.179 2.58,-5.761 5.76,-5.761 h 18.79 c 3.19,0 5.76,2.582 5.76,5.761 v 101.801 l 13.7,21.68 74.15,-126.403 c 1.03,-1.757 2.93,-2.839 4.98,-2.839 h 19.63 c 2.05,0 3.95,1.089 4.99,2.871 1.02,1.757 1.03,3.961 0.01,5.73 l -85.43,150.008" /><path
         id="path96"
         style="fill:#a81f36;fill-opacity:1;fill-rule:nonzero;stroke:none"
         d="m 2090.35,692.309 h -17.57 c -3.18,0 -5.76,-2.571 -5.76,-5.758 v -217.16 c 0,-7.11 -0.7,-13.922 -2.1,-20.192 -1.34,-5.937 -3.52,-11.109 -6.49,-15.371 -2.85,-4.129 -6.51,-7.269 -11.14,-9.59 -9.26,-4.648 -25.65,-4.648 -34.93,0 -4.63,2.321 -8.28,5.461 -11.13,9.59 -2.97,4.274 -5.15,9.434 -6.47,15.363 -1.39,6.2 -2.1,13 -2.1,20.2 v 217.16 c 0,3.187 -2.58,5.758 -5.77,5.758 h -18.81 c -3.19,0 -5.77,-2.571 -5.77,-5.758 v -216.34 c 0,-10.84 1.24,-20.973 3.68,-30.121 2.47,-9.371 6.44,-17.738 11.78,-24.86 5.47,-7.289 12.59,-13.039 21.17,-17.109 8.54,-4.031 18.8,-6.062 30.49,-6.062 11.67,0 21.93,2.031 30.47,6.062 8.59,4.07 15.71,9.82 21.15,17.09 5.34,7.098 9.24,15.5 11.64,24.969 2.26,9.179 3.42,19.281 3.42,30.031 v 216.34 c 0,3.187 -2.58,5.758 -5.76,5.758" /><path
         id="path98"
         style="fill:#a81f36;fill-opacity:1;fill-rule:nonzero;stroke:none"
         d="m 2273.55,423.199 h -84.21 v 263.352 c 0,3.187 -2.58,5.758 -5.77,5.758 h -18.8 c -3.19,0 -5.77,-2.571 -5.77,-5.758 v -286.27 c 0,-3.179 2.58,-5.761 5.77,-5.761 h 108.78 c 3.19,0 5.77,2.582 5.77,5.761 v 17.16 c 0,3.18 -2.58,5.758 -5.77,5.758" /><path
         id="path100"
         style="fill:#a81f36;fill-opacity:1;fill-rule:nonzero;stroke:none"
         d="m 2433.14,692.309 h -135.37 c -3.18,0 -5.76,-2.571 -5.76,-5.758 v -17.172 c 0,-3.18 2.58,-5.75 5.76,-5.75 h 52.73 V 400.281 c 0,-3.179 2.58,-5.761 5.76,-5.761 h 18.8 c 3.18,0 5.76,2.582 5.76,5.761 v 263.348 h 52.32 c 3.19,0 5.76,2.57 5.76,5.75 v 17.172 c 0,3.187 -2.57,5.758 -5.76,5.758" /><path
         id="path102"
         style="fill:#a81f36;fill-opacity:1;fill-rule:nonzero;stroke:none"
         d="m 2596,692.309 h -112.89 c -3.19,0 -5.76,-2.571 -5.76,-5.758 v -286.27 c 0,-3.179 2.57,-5.761 5.76,-5.761 H 2596 c 3.18,0 5.75,2.582 5.75,5.761 v 17.16 c 0,3.18 -2.57,5.758 -5.75,5.758 h -88.32 v 107.903 h 72.36 c 3.18,0 5.76,2.578 5.76,5.757 v 17.172 c 0,3.188 -2.58,5.758 -5.76,5.758 h -72.36 v 103.84 H 2596 c 3.18,0 5.75,2.57 5.75,5.75 v 17.172 c 0,3.187 -2.57,5.758 -5.75,5.758" /><path
         id="path104"
         style="fill:#a81f36;fill-opacity:1;fill-rule:nonzero;stroke:none"
         d="M 2778.48,692.309 H 2643.1 c -3.18,0 -5.76,-2.571 -5.76,-5.758 v -17.172 c 0,-3.18 2.58,-5.75 5.76,-5.75 h 52.73 V 400.281 c 0,-3.179 2.58,-5.761 5.76,-5.761 h 18.8 c 3.18,0 5.76,2.582 5.76,5.761 v 263.348 h 52.33 c 3.18,0 5.75,2.57 5.75,5.75 v 17.172 c 0,3.187 -2.57,5.758 -5.75,5.758" /></g></g></svg>