<?xml version="1.0" encoding="UTF-8"?>
<svg id="Layer_4" data-name="Layer 4" xmlns="http://www.w3.org/2000/svg" viewBox="0 0 229.59 230.79">
  <defs>
    <style>
      .cls-1 {
        fill: none;
        stroke: #e8e8e8;
        stroke-miterlimit: 10;
        stroke-width: 11.34px;
      }
    </style>
  </defs>
  <g id="Layer_2" data-name="Layer 2">
    <polygon class="cls-1" points="114.79 209.86 89.46 224.26 36.19 193.45 36.19 166.97 5.67 148.82 5.67 86.34 35.9 68.78 35.9 37.68 89.46 6.6 114.79 22.14 114.79 209.86"/>
    <polygon class="cls-1" points="114.79 209.86 140.13 224.26 193.39 193.45 193.39 166.97 223.92 148.82 223.92 86.34 193.68 68.78 193.68 37.68 140.13 6.6 114.79 22.14 114.79 209.86"/>
  </g>
  <g id="Layer_3" data-name="Layer 3">
    <g>
      <path class="cls-1" d="M35.9,68.78l16.52,10.09-16.52-10.09Z"/>
      <circle class="cls-1" cx="52.44" cy="78.87" r="3.87"/>
    </g>
    <circle class="cls-1" cx="24" cy="119.1" r="3.87"/>
    <g>
      <path class="cls-1" d="M35.97,167.13l16.52-10.09-16.52,10.09h0Z"/>
      <circle class="cls-1" cx="52.49" cy="157.05" r="3.87"/>
    </g>
    <circle class="cls-1" cx="95.43" cy="119.1" r="3.87"/>
    <polyline class="cls-1" points="73.21 186.4 83.69 175.56 83.69 145.01 61.64 134.35 61.64 104.17 83.69 89.35 83.69 58.63 73.76 51.59"/>
    <circle class="cls-1" cx="72.68" cy="186.4" r="3.87"/>
    <circle class="cls-1" cx="73.57" cy="51.59" r="3.87"/>
    <g>
      <path class="cls-1" d="M193.68,68.61l-16.52,10.09,16.52-10.09h0Z"/>
      <circle class="cls-1" cx="177.15" cy="78.7" r="3.87"/>
    </g>
    <circle class="cls-1" cx="205.59" cy="118.93" r="3.87"/>
    <g>
      <path class="cls-1" d="M193.62,166.95l-16.52-10.09,16.52,10.09Z"/>
      <circle class="cls-1" cx="177.08" cy="156.86" r="3.87"/>
    </g>
    <circle class="cls-1" cx="134.16" cy="118.93" r="3.87"/>
    <polyline class="cls-1" points="156.38 186.21 145.9 175.37 145.9 144.83 167.94 134.17 167.94 104 145.9 89.18 145.9 58.46 155.83 51.4"/>
    <circle class="cls-1" cx="156.91" cy="186.21" r="3.87"/>
    <circle class="cls-1" cx="156.02" cy="51.4" r="3.87"/>
    <line class="cls-1" x1="95.43" y1="119.1" x2="134.16" y2="119.1"/>
    <line class="cls-1" x1="24" y1="119.1" x2="5.67" y2="119.1"/>
    <line class="cls-1" x1="205.59" y1="118.93" x2="223.92" y2="118.93"/>
  </g>
</svg>