<svg class="icon logo-icon" xmlns="http://www.w3.org/2000/svg" viewBox="0 0 84 72" fill="#162585">
    <path d="M46.7278 27.5141C46.5901 25.0217 45.9316 22.5981 44.8111 20.3903L52.2222 16.1317C54.0701 19.6053 55.1513 23.491 55.2988 27.5141H46.7179H46.7278ZM33.4486 31.2624C32.967 32.0965 32.2691 32.803 31.4238 33.2838C29.7823 34.2356 27.6199 34.2454 25.9489 33.3034C25.9293 33.2936 25.9195 33.2838 25.8998 33.274C25.3789 32.9796 24.9071 32.5969 24.5139 32.1456C24.278 31.8806 24.0617 31.5764 23.875 31.2624C23.8455 31.2134 23.816 31.1545 23.7865 31.1054C23.531 30.6344 23.3442 30.1144 23.2361 29.5943C23.1673 29.2411 23.128 28.878 23.128 28.515C23.128 27.5435 23.3835 26.5917 23.8652 25.7675C23.8947 25.7184 23.934 25.6595 23.9635 25.6105C24.3173 25.0512 24.7694 24.5507 25.2904 24.1484C25.487 24.0012 25.6836 23.8737 25.89 23.7559C27.5511 22.7943 29.7332 22.7943 31.3943 23.7461C31.3943 23.7461 31.4041 23.7461 31.4139 23.7559C31.6302 23.8737 31.8268 24.011 32.0135 24.1582C32.5934 24.5998 33.0751 25.1493 33.4388 25.7675C33.9204 26.6015 34.1759 27.5435 34.1759 28.515C34.1759 29.4864 33.9204 30.4382 33.4388 31.2624H33.4486ZM16.2083 51.9667L20.4938 44.5779C22.7152 45.6965 25.1626 46.3442 27.6592 46.4815V55.0086C23.6489 54.8614 19.7271 53.8114 16.2083 51.9569V51.9667ZM6.09407 42.6253L13.5151 38.3568C14.8813 40.4273 16.6702 42.2131 18.7638 43.5771L14.4783 50.956C11.0971 48.8365 8.22699 45.9811 6.09407 42.6154V42.6253ZM2.0248 29.506H10.5958C10.7334 31.9984 11.3821 34.4221 12.5125 36.6298L5.0915 40.8983C3.22396 37.3952 2.17224 33.4997 2.0248 29.506ZM14.4685 6.06409L18.754 13.4529C16.6702 14.8168 14.8813 16.5928 13.5052 18.6633L6.09407 14.4047C8.19751 11.0782 11.0381 8.2032 14.4685 6.06409ZM40.1717 27.5141C40.0538 26.1796 39.6999 24.8647 39.1298 23.648L43.0615 21.3911C44.0149 23.2947 44.5752 25.3848 44.7128 27.5239H40.1717V27.5141ZM23.757 38.9358C24.9759 39.5049 26.293 39.8581 27.6494 39.9759V44.4896C25.4968 44.3621 23.4032 43.7929 21.4865 42.8509L23.757 38.9358ZM19.1767 35.1089C19.9532 36.2177 20.9164 37.1695 22.0271 37.9447L19.7566 41.8599C17.9677 40.6824 16.4343 39.1516 15.245 37.3756L19.1767 35.1187V35.1089ZM17.1322 29.5158C17.2501 30.8601 17.604 32.175 18.1741 33.3819L14.2424 35.6388C13.289 33.7352 12.7287 31.6451 12.5911 29.506H17.1322V29.5158ZM22.0271 19.095C20.9262 19.8702 19.963 20.822 19.1767 21.9308L15.245 19.6739C16.4343 17.8979 17.9677 16.3672 19.7566 15.1897L22.0271 19.1048V19.095ZM27.6494 10.5484C25.1528 10.6858 22.7053 11.3334 20.4839 12.452L16.1984 5.07303C19.7173 3.21848 23.6391 2.16855 27.6494 2.02136V10.5484ZM36.82 12.452C34.5986 11.3334 32.1511 10.6858 29.6545 10.5484V2.02136C33.6648 2.16855 37.5867 3.21848 41.1055 5.07303L36.82 12.452ZM38.1273 21.921C37.3507 20.822 36.3875 19.8604 35.2768 19.0852L37.5473 15.17C39.3362 16.3573 40.8696 17.8881 42.0589 19.6543L38.1273 21.9112V21.921ZM36.1123 27.5141V27.4945C36.0828 27.2884 36.0435 27.0823 35.9943 26.8861C35.9845 26.8272 35.9648 26.7782 35.955 26.7193C35.9059 26.5132 35.8469 26.3072 35.7781 26.1011C35.7781 26.0913 35.7781 26.0815 35.7683 26.0717C35.7191 25.9343 35.67 25.7969 35.611 25.6595L37.3901 24.639C37.8029 25.5516 38.0584 26.5132 38.1666 27.5141H36.1221H36.1123ZM25.7818 35.4425C25.9195 35.5014 26.0669 35.5505 26.2045 35.5995C26.4109 35.6682 26.6173 35.7271 26.8336 35.786C26.8827 35.7958 26.9417 35.8056 26.9908 35.8252C27.1972 35.8743 27.3938 35.9037 27.6002 35.9332C27.6101 35.9332 27.6199 35.9332 27.6297 35.9332V37.9643C26.6272 37.8564 25.6541 37.6013 24.74 37.199L25.7622 35.4327L25.7818 35.4425ZM22.6857 33.0876C23.0788 33.5978 23.5408 34.059 24.0519 34.4417L23.0297 36.1981C22.2237 35.6094 21.5062 34.9029 20.9164 34.0982L22.6857 33.0777V33.0876ZM21.1818 29.506C21.2703 30.1438 21.4374 30.7718 21.6831 31.3606L19.9138 32.3811C19.5109 31.4685 19.2455 30.5069 19.1373 29.506H21.1818ZM21.6831 25.6595C21.4374 26.2581 21.2703 26.8763 21.1818 27.5141H19.1373C19.2455 26.523 19.501 25.5516 19.904 24.6489L21.6733 25.6694L21.6831 25.6595ZM24.0519 22.5784C23.5408 22.9709 23.0788 23.4223 22.6857 23.9325L20.9164 22.9121C21.5062 22.1074 22.2237 21.4009 23.0297 20.8122L24.0519 22.5686V22.5784ZM27.6494 17.054C26.3028 17.1718 24.9759 17.525 23.757 18.0843L21.4865 14.1692C23.4032 13.2174 25.5066 12.6679 27.6494 12.5305V17.0442V17.054ZM33.5469 18.0843C32.3182 17.5152 31.0011 17.1718 29.6545 17.054V12.5403C31.7973 12.6777 33.9007 13.2272 35.8174 14.179L33.5469 18.0941V18.0843ZM34.6182 23.9325C34.3725 23.6186 34.0973 23.3242 33.8024 23.0494C33.6255 22.8826 33.4486 22.7256 33.2618 22.5784L34.2841 20.822C35.09 21.4108 35.8076 22.1172 36.3973 22.9219L34.6281 23.9424L34.6182 23.9325ZM27.6494 21.0968C27.4921 21.1164 27.3349 21.1458 27.1776 21.1753C26.696 21.2636 26.234 21.4009 25.7818 21.5874L24.7596 19.8211C25.6737 19.4188 26.6468 19.1539 27.6396 19.0558V21.0968H27.6494ZM31.5122 21.5776C30.9127 21.3421 30.2836 21.1753 29.6545 21.0968V19.046C30.6473 19.1539 31.6302 19.409 32.5443 19.8113L31.5221 21.5776H31.5122ZM14.2326 21.3813L18.1643 23.6382C17.5942 24.8549 17.2403 26.1698 17.1224 27.5043H12.5813C12.7091 25.3652 13.2792 23.2849 14.2326 21.3813ZM2.00515 27.5043C2.16241 23.4812 3.23379 19.5954 5.08167 16.1218L12.4928 20.3804C11.3723 22.5882 10.7138 25.0217 10.5762 27.5043H2.0248H2.00515ZM51.2 14.3949L43.7888 18.6535C42.4226 16.5732 40.6337 14.7972 38.5499 13.443L42.8354 6.05428C46.2658 8.2032 49.1064 11.0684 51.2 14.4047V14.3949ZM57.3039 28.4953C57.3039 18.3493 51.8193 8.89007 42.973 3.80723C38.658 1.32468 33.7041 0 28.6618 0C23.6194 0 18.6655 1.32468 14.3309 3.81704C5.48466 8.89989 0 18.3591 0 28.5051C0 33.5193 1.32693 38.455 3.83337 42.7626C6.3398 47.0899 9.96675 50.7009 14.3211 53.2031C18.6557 55.7052 23.6096 57.0201 28.652 57.0201H29.6545V35.9332C30.6276 35.8056 31.5712 35.4818 32.4165 35.001C33.5567 34.3435 34.5101 33.3917 35.1687 32.2535C35.6601 31.4096 35.9845 30.4774 36.1123 29.506H57.3137V28.515L57.3039 28.4953Z"></path>
    <path d="M83.9795 71.6116L82.5739 67.9614H82.2004L80.7948 71.6116H81.1782L81.5222 70.7187H83.262L83.606 71.6116H83.9991H83.9795ZM82.3872 68.4225L83.1244 70.3752H81.65L82.3872 68.4225ZM78.9961 71.6705C79.6645 71.6705 80.2837 71.3172 80.5786 70.7677L80.2542 70.5911C80.0282 71.0326 79.5367 71.3172 78.9961 71.3172C78.5341 71.3172 78.1606 71.17 77.8756 70.8756C77.5905 70.5813 77.4431 70.2182 77.4431 69.7865C77.4431 69.3547 77.5905 68.9917 77.8756 68.6973C78.1606 68.4029 78.544 68.2557 78.9961 68.2557C79.5367 68.2557 80.0282 68.5403 80.2542 68.9818L80.5786 68.7954C80.2739 68.2459 79.6645 67.9025 78.9961 67.9025C78.4457 67.9025 77.9837 68.0791 77.62 68.452C77.2564 68.815 77.0794 69.2664 77.0794 69.7963C77.0794 70.3262 77.2564 70.7677 77.62 71.1406C77.9837 71.5036 78.4359 71.6901 78.9961 71.6901M79.1534 66.931H79.576L79.0747 67.6081H78.7406L79.1534 66.931ZM76.0572 71.6214H76.4307V67.9712H76.0572V71.6214ZM72.8922 67.9712V68.3146H74.0127V71.6116H74.3764V68.3146H75.5068V67.9712H72.8824H72.8922ZM70.0811 70.7873C70.2678 71.3466 70.7691 71.6803 71.4375 71.6803C71.811 71.6803 72.1059 71.592 72.332 71.4055C72.558 71.2191 72.676 70.964 72.676 70.6598C72.676 70.4733 72.6072 70.2967 72.5482 70.1888C72.4794 70.071 72.3025 69.9435 72.1943 69.8846C72.1452 69.8453 72.0567 69.8061 71.9486 69.7668C71.8405 69.7178 71.7619 69.6883 71.7029 69.6785L71.4277 69.5804C71.1328 69.4921 70.9264 69.394 70.8084 69.3057C70.6807 69.2173 70.6217 69.08 70.6217 68.9034C70.6217 68.5109 70.9264 68.2754 71.3884 68.2754C71.8503 68.2754 72.1255 68.4814 72.2926 68.8837L72.6072 68.7169C72.4008 68.2557 71.9683 67.9319 71.3982 67.9319C71.0837 67.9319 70.8084 68.0202 70.5922 68.2067C70.376 68.3833 70.2678 68.6286 70.2678 68.9328C70.2678 69.237 70.4054 69.4921 70.6807 69.6589C70.7986 69.7374 71.0542 69.8355 71.4375 69.9631C71.752 70.071 71.9879 70.1692 72.1255 70.2673C72.273 70.3654 72.3418 70.5028 72.3418 70.699C72.3418 71.1013 72.0174 71.3565 71.4768 71.3565C70.9362 71.3565 70.5529 71.0915 70.4251 70.6402L70.1106 70.8168M67.899 71.7097C68.4298 71.7097 68.8721 71.5331 69.2456 71.1602C69.6093 70.7873 69.796 70.3458 69.796 69.8159C69.796 69.286 69.6191 68.8445 69.2456 68.4814C68.8819 68.1085 68.4298 67.9319 67.899 67.9319C67.3682 67.9319 66.9161 68.1085 66.5524 68.4814C66.1887 68.8445 66.002 69.286 66.002 69.8159C66.002 70.3458 66.1789 70.7873 66.5524 71.1602C66.9259 71.5233 67.3682 71.7097 67.899 71.7097ZM67.899 71.3565C67.4567 71.3565 67.1029 71.2093 66.808 70.9149C66.5131 70.6205 66.3657 70.2575 66.3657 69.8257C66.3657 69.394 66.5131 69.0407 66.808 68.7463C67.1029 68.452 67.4567 68.295 67.899 68.295C68.3413 68.295 68.6952 68.452 68.99 68.7463C69.2849 69.0407 69.4324 69.4038 69.4324 69.8257C69.4324 70.2477 69.2849 70.6205 68.99 70.9149C68.6952 71.2093 68.3413 71.3565 67.899 71.3565ZM64.2229 69.7767L65.9823 68.0104H65.5007L63.8396 69.6785V68.0104H63.4759V71.6606H63.8396V69.8944L65.5597 71.6606H66.0413L64.2327 69.7865L64.2229 69.7767ZM61.6477 71.6508L60.2421 68.0006H59.8588L58.4532 71.6508H58.8464L59.1904 70.7579H60.9301L61.2643 71.6508H61.6575H61.6477ZM60.0554 68.4618L60.7925 70.4145H59.3182L60.0554 68.4618ZM56.4677 69.914V70.2575H57.9224C57.8831 70.5715 57.7455 70.8364 57.4998 71.0523C57.254 71.2583 56.9297 71.3565 56.507 71.3565C56.0549 71.3565 55.6716 71.2093 55.3865 70.9149C55.0916 70.6205 54.9442 70.2575 54.9442 69.8257C54.9442 69.394 55.0916 69.0309 55.3865 68.7365C55.6716 68.4422 56.0549 68.295 56.507 68.295C57.0476 68.295 57.5391 68.5795 57.7652 69.0211L58.0895 68.8347C57.9323 68.5599 57.716 68.344 57.431 68.187C57.1459 68.0202 56.8412 67.9417 56.4972 67.9417C55.9468 67.9417 55.4848 68.1184 55.1211 68.4912C54.7574 68.8543 54.5805 69.3057 54.5805 69.8355C54.5805 70.3654 54.7574 70.807 55.1211 71.1798C55.4848 71.5429 55.9468 71.7293 56.4972 71.7293C57.0476 71.7293 57.4801 71.5723 57.8045 71.2681C58.1288 70.9541 58.2861 70.5715 58.2861 70.1201V69.9337H56.4579L56.4677 69.914ZM54.4331 71.6508L53.0275 68.0006H52.654L51.2484 71.6508H51.6416L51.9856 70.7579H53.7254L54.0694 71.6508H54.4527H54.4331ZM52.8408 68.4618L53.5779 70.4145H52.1036L52.8408 68.4618ZM51.0617 71.6508L50.1672 70.1495C50.4031 70.0808 50.5801 69.9533 50.7275 69.7668C50.8749 69.5706 50.9536 69.3547 50.9536 69.1094C50.9536 68.8052 50.8454 68.5501 50.6292 68.3342C50.413 68.1184 50.1574 68.0104 49.8527 68.0104H48.3882V71.6606H48.7518V70.2084H49.7839L50.639 71.6606H51.0617V71.6508ZM49.8625 68.3539C50.0689 68.3539 50.236 68.4225 50.3835 68.5697C50.5309 68.7169 50.5997 68.8935 50.5997 69.0996C50.5997 69.3057 50.5211 69.4823 50.3835 69.6295C50.236 69.7767 50.0689 69.8453 49.8625 69.8453H48.7617V68.344H49.8625V68.3539ZM44.6039 68.0104V71.6606H46.0193C46.5206 71.6606 46.9334 71.484 47.2578 71.1308C47.5822 70.7775 47.7493 70.3458 47.7493 69.8355C47.7493 69.3253 47.592 68.8935 47.2578 68.5403C46.9334 68.187 46.5206 68.0104 46.0193 68.0104H44.6039ZM44.9774 71.3074V68.3539H46.0193C46.4223 68.3539 46.7467 68.4912 47.0023 68.7758C47.2578 69.0603 47.3954 69.4136 47.3954 69.8257C47.3954 70.2378 47.2578 70.5911 47.0023 70.8756C46.7467 71.1602 46.4223 71.2976 46.0193 71.2976H44.9774V71.3074ZM42.0582 71.7097C42.589 71.7097 43.0313 71.5331 43.4048 71.1602C43.7783 70.7873 43.9552 70.3458 43.9552 69.8159C43.9552 69.286 43.7783 68.8445 43.4048 68.4814C43.0411 68.1085 42.589 67.9319 42.0582 67.9319C41.5274 67.9319 41.0753 68.1085 40.7116 68.4814C40.3381 68.8445 40.1612 69.286 40.1612 69.8159C40.1612 70.3458 40.3381 70.7873 40.7116 71.1602C41.0753 71.5233 41.5274 71.7097 42.0582 71.7097ZM42.0582 71.3565C41.6159 71.3565 41.262 71.2093 40.9672 70.9149C40.6723 70.6205 40.5248 70.2575 40.5248 69.8257C40.5248 69.394 40.6723 69.0407 40.9672 68.7463C41.262 68.452 41.6159 68.295 42.0582 68.295C42.5005 68.295 42.8544 68.452 43.1492 68.7463C43.4441 69.0407 43.5915 69.4038 43.5915 69.8257C43.5915 70.2477 43.4441 70.6205 43.1492 70.9149C42.8544 71.2093 42.4907 71.3565 42.0582 71.3565ZM39.1488 71.6508H39.5223V68.0006H39.1488V71.6508ZM37.8317 68.0006L36.603 70.0318L35.3842 68.0006H34.9321V71.6508H35.2957V68.5599L36.5834 70.699H36.6325L37.9103 68.5599V71.6508H38.2838V68.0006H37.8218H37.8317ZM61.9032 65.3905L60.4977 61.7403H60.1242L58.7186 65.3905H59.1118L59.4558 64.4976H61.1955L61.5396 65.3905H61.9327H61.9032ZM60.3109 62.2015L61.0481 64.1541H59.5737L60.3109 62.2015ZM57.8536 64.7134L55.8092 61.7501H55.4946V65.4003H55.8583V62.4369L57.9028 65.4003H58.2173V61.7501H57.8536V64.7134ZM54.266 65.3905H54.6395V61.7403H54.266V65.3905ZM53.6173 64.37C53.6173 63.9775 53.3814 63.6439 53.0275 63.4967C53.3126 63.3201 53.46 63.0551 53.46 62.7215C53.46 62.4566 53.3715 62.2309 53.175 62.0346C52.9784 61.8384 52.7523 61.7403 52.4771 61.7403H51.0027V65.3905H52.595C52.8801 65.3905 53.116 65.2924 53.3126 65.0961C53.5091 64.8999 53.6173 64.6546 53.6173 64.3798M52.4771 62.0935C52.654 62.0935 52.7916 62.1622 52.9096 62.28C53.0275 62.4075 53.0963 62.5547 53.0963 62.7313C53.0963 62.9079 53.0275 63.0551 52.9096 63.1827C52.7916 63.3004 52.654 63.3593 52.4771 63.3593H51.3664V62.0837H52.4771V62.0935ZM51.3664 65.0569V63.7126H52.595C52.772 63.7126 52.9292 63.7813 53.057 63.9088C53.1946 64.0364 53.2536 64.2032 53.2536 64.3798C53.2536 64.5564 53.1946 64.7331 53.057 64.8606C52.9292 64.9882 52.7818 65.0569 52.595 65.0569H51.3664ZM50.3442 62.0935V61.7501H48.0933V62.0935H49.9313L48.0441 65.0569V65.4003H50.3933V65.0569H48.4471L50.3442 62.0935ZM49.4202 61.387L49.9706 60.71H49.5775L49.204 61.1613L48.8403 60.71H48.4471L48.9976 61.387H49.4104H49.4202ZM44.7121 64.1541C44.7121 64.5466 44.8398 64.8704 45.0856 65.1059C45.3313 65.3414 45.6655 65.4592 46.0685 65.4592C46.4715 65.4592 46.8057 65.3414 47.0514 65.1059C47.2971 64.8704 47.4249 64.5564 47.4249 64.1541V61.7501H47.0612V64.1541C47.0612 64.7331 46.6877 65.1059 46.0587 65.1059C45.4296 65.1059 45.0659 64.7429 45.0659 64.1541V61.7501H44.7022V64.1541H44.7121ZM40.9966 61.7501V65.4003H42.412C42.9035 65.4003 43.3163 65.2237 43.6505 64.8704C43.9749 64.5172 44.142 64.0854 44.142 63.5752C44.142 63.0649 43.9847 62.6332 43.6505 62.28C43.3261 61.9267 42.9133 61.7501 42.412 61.7501H40.9966ZM41.3603 65.0471V62.0837H42.412C42.815 62.0837 43.1394 62.2211 43.395 62.5056C43.6505 62.7902 43.7881 63.1434 43.7881 63.5556C43.7881 63.9677 43.6603 64.3209 43.395 64.6055C43.1394 64.8901 42.815 65.0274 42.412 65.0274H41.3603V65.0471ZM40.4954 65.3905L39.0898 61.7403H38.7163L37.3107 65.3905H37.694L38.0381 64.4976H39.7778L40.1219 65.3905H40.515H40.4954ZM38.903 62.2015L39.6402 64.1541H38.1658L38.903 62.2015ZM35.1286 65.0471H37.0748V65.3905H34.7158V65.0471L36.6128 62.0837H34.765V61.7403H37.0158V62.0837L35.1188 65.0471H35.1286Z"></path>
    <path d="M76.1164 55.4801C76.9126 55.4801 77.5417 55.1464 77.8955 54.6754L79.5468 55.6469C78.7998 56.7459 77.6105 57.3739 76.0869 57.3739C73.4232 57.3739 71.7326 55.5193 71.7326 53.1251C71.7326 50.7308 73.4331 48.8763 75.9297 48.8763C78.2788 48.8763 79.9498 50.7603 79.9498 53.1251C79.9498 53.4293 79.9203 53.704 79.8712 53.9787H73.8754C74.1604 55.0385 75.0352 55.4899 76.1164 55.4899M77.9053 52.3695C77.6498 51.2116 76.7946 50.7505 75.9297 50.7505C74.8288 50.7505 74.0818 51.3392 73.8459 52.3695H77.8955H77.9053ZM68.9706 57.1482L66.0809 53.4979V57.1482H64.0266V45.8835H66.0809V52.6443L68.8134 49.102H71.2608L68.0664 53.076L71.3591 57.1482H68.9706ZM61.8052 49.102V57.1482H59.7607V56.2454C59.2889 56.9715 58.4535 57.3739 57.3919 57.3739C55.7111 57.3739 54.394 56.1865 54.394 54.0474V49.1118H56.4385V53.7923C56.4385 54.8913 57.0872 55.4506 58.0111 55.4506C59.0137 55.4506 59.7607 54.8521 59.7607 53.4489V49.102H61.815H61.8052ZM52.3004 49.102V57.1482H50.2461V56.1964C49.676 56.9225 48.8111 57.3739 47.6512 57.3739C45.538 57.3739 43.7884 55.5193 43.7884 53.1251C43.7884 50.7308 45.538 48.8763 47.6512 48.8763C48.8111 48.8763 49.6662 49.3277 50.2461 50.0538V49.102H52.3004ZM50.2461 53.1251C50.2461 51.7709 49.3124 50.8584 48.0346 50.8584C46.7568 50.8584 45.8427 51.7709 45.8427 53.1251C45.8427 54.4792 46.7764 55.3917 48.0346 55.3917C49.2927 55.3917 50.2461 54.4792 50.2461 53.1251ZM42.1076 52.2027V57.1384H40.0533V52.4578C40.0533 51.3588 39.4046 50.7995 38.4806 50.7995C37.4781 50.7995 36.731 51.3981 36.731 52.8013V57.1482H34.6768V49.102H36.731V50.0047C37.2028 49.2786 38.0383 48.8763 39.0999 48.8763C40.7807 48.8763 42.1076 50.0636 42.1076 52.2027ZM83.9797 35.8748V43.764H81.9353V42.8318C81.3652 43.5383 80.5101 43.9799 79.3502 43.9799C77.2369 43.9799 75.4972 42.1646 75.4972 39.8096C75.4972 37.4546 77.2468 35.6393 79.3502 35.6393C80.5101 35.6393 81.3652 36.0809 81.9353 36.7873V35.8552H83.9797V35.8748ZM81.9353 39.8194C81.9353 38.4947 81.0015 37.592 79.7237 37.592C78.4459 37.592 77.5318 38.4947 77.5318 39.8194C77.5318 41.1441 78.4656 42.0468 79.7237 42.0468C80.9819 42.0468 81.9353 41.1539 81.9353 39.8194ZM72.5583 37.8275V41.1146C72.5583 41.9683 73.1775 41.9781 74.3472 41.9193V43.764C71.4771 44.078 70.504 43.2439 70.504 41.1146V37.8275H69.1279V35.865H70.504V34.2656L72.5484 33.6572V35.865H74.3374V37.8275H72.5484H72.5583ZM67.6142 35.865V43.7542H65.5698V42.822C64.9997 43.5285 64.1445 43.9701 62.9847 43.9701C60.8714 43.9701 59.1317 42.1548 59.1317 39.7998C59.1317 37.4448 60.8813 35.6295 62.9847 35.6295C64.1445 35.6295 64.9997 36.071 65.5698 36.7775V35.8454H67.6142V35.865ZM65.5698 39.8096C65.5698 38.4849 64.636 37.5822 63.3582 37.5822C62.0804 37.5822 61.1663 38.4849 61.1663 39.8096C61.1663 41.1343 62.1001 42.037 63.3582 42.037C64.6163 42.037 65.5698 41.1441 65.5698 39.8096ZM55.2688 32.2344H57.3133V43.7542H55.2688V32.2344ZM53.0671 35.865V43.7542H51.0226V42.822C50.4525 43.5285 49.5974 43.9701 48.4376 43.9701C46.3243 43.9701 44.5845 42.1548 44.5845 39.7998C44.5845 37.4448 46.3341 35.6295 48.4376 35.6295C49.5974 35.6295 50.4525 36.071 51.0226 36.7775V35.8454H53.0671V35.865ZM51.0226 39.8096C51.0226 38.4849 50.0889 37.5822 48.8209 37.5822C47.5529 37.5822 46.629 38.4849 46.629 39.8096C46.629 41.1343 47.5628 42.037 48.8209 42.037C50.079 42.037 51.0226 41.1441 51.0226 39.8096ZM43.1986 39.8096C43.1986 42.1646 41.449 43.9799 39.3259 43.9799C38.1661 43.9799 37.3208 43.5579 36.7605 42.8318V46.9236H34.7161V35.8748H36.7605V36.807C37.3306 36.0809 38.1759 35.6589 39.3259 35.6589C41.449 35.6589 43.1986 37.4742 43.1986 39.8292M41.1542 39.8292C41.1542 38.5045 40.2204 37.6018 38.9524 37.6018C37.6845 37.6018 36.7605 38.5045 36.7605 39.8292C36.7605 41.1539 37.6943 42.0566 38.9524 42.0566C40.2106 42.0566 41.1542 41.1637 41.1542 39.8292Z"></path>
</svg>