<?xml version="1.0" encoding="UTF-8"?>
<svg id="Layer_4" data-name="Layer 4" xmlns="http://www.w3.org/2000/svg" viewBox="0 0 671.48 232.77">
  <defs>
    <style>
      .cls-1 {
        letter-spacing: -.03em;
      }

      .cls-2 {
        stroke-width: 0px;
      }

      .cls-2, .cls-3 {
        fill: #e8e8e8;
      }

      .cls-3 {
        font-family: EffraVFWghtItal-SemiBold, 'Effra VF Trial';
        font-size: 127.69px;
        font-variation-settings: 'wght' 600, 'ital' 0;
        font-weight: 600;
      }
    </style>
  </defs>
  <path class="cls-2" d="M89.14,232.17l-58.18-33.65v-26.91L0,153.21v-68.15l30.67-17.82v-31.55L89.22,1.7l29.8,18.29v195.2l-29.88,16.98ZM39.28,193.72l49.9,28.86,21.53-12.23V24.64l-21.61-13.26-50.12,29.1v31.55l-30.67,17.82v58.63l30.96,18.4v26.84Z"/>
  <path class="cls-2" d="M140.59,232.17l-29.88-16.98V19.99L140.51,1.7l58.55,34v31.55l30.67,17.82v68.15l-30.96,18.4v26.91l-58.18,33.65ZM119.02,210.35l21.53,12.23,49.9-28.86v-26.84l30.96-18.4v-58.63l-30.67-17.82v-31.55l-50.12-29.1-21.61,13.26v185.71Z"/>
  <g>
    <rect class="cls-2" x="39.06" y="64.93" width="8.31" height="19.65" transform="translate(-43.11 72.69) rotate(-58.6)"/>
    <path class="cls-2" d="M51.6,87.96c-4.46,0-8.09-3.63-8.09-8.09s3.63-8.09,8.09-8.09,8.09,3.63,8.09,8.09-3.63,8.09-8.09,8.09ZM51.6,79.65c-.12,0-.23.1-.23.22,0,.25.45.25.45,0,0-.12-.1-.22-.22-.22Z"/>
  </g>
  <path class="cls-2" d="M22.76,128.78c-2.69,0-5.32-1.33-6.85-3.77h0c-2.38-3.77-1.25-8.78,2.52-11.16,1.83-1.15,3.99-1.53,6.1-1.05,2.11.48,3.91,1.75,5.06,3.57,1.15,1.82,1.53,3.99,1.05,6.1-.48,2.11-1.74,3.9-3.57,5.06-1.34.84-2.83,1.25-4.31,1.25ZM22.55,120.81h0c.06.09.22.13.31.07.1-.07.13-.2.07-.31l-.38.24ZM22.74,120.46s-.08.01-.12.03c-.09.06-.13.22-.07.31l.38-.24c-.04-.07-.12-.1-.19-.1Z"/>
  <g>
    <rect class="cls-2" x="33.46" y="160.14" width="19.65" height="8.31" transform="translate(-79.25 46.6) rotate(-31.4)"/>
    <path class="cls-2" d="M51.66,167.27c-4.46,0-8.09-3.63-8.09-8.09s3.63-8.09,8.09-8.09,8.09,3.63,8.09,8.09-3.63,8.09-8.09,8.09ZM51.66,158.95c-.12,0-.23.1-.23.22,0,.25.45.25.45,0,0-.12-.1-.22-.23-.22Z"/>
  </g>
  <path class="cls-2" d="M95.23,128.78c-2.69,0-5.32-1.33-6.85-3.77-2.38-3.77-1.25-8.78,2.52-11.16,1.83-1.15,4-1.53,6.1-1.05,2.11.48,3.9,1.74,5.06,3.57h0c1.15,1.83,1.53,3.99,1.05,6.1-.48,2.11-1.74,3.9-3.57,5.06-1.34.84-2.83,1.25-4.31,1.25ZM95.03,120.81c.06.09.23.13.31.07.1-.07.13-.2.07-.31s-.2-.14-.31-.07c-.09.06-.13.22-.07.31Z"/>
  <polygon class="cls-2" points="75.67 191.85 69.69 186.07 79.16 176.28 79.16 149.58 56.79 138.76 56.79 103.32 79.16 88.29 79.16 61.49 70.83 55.58 75.64 48.8 87.47 57.19 87.47 92.72 65.11 107.75 65.11 133.55 87.47 144.37 87.47 179.64 75.67 191.85"/>
  <path class="cls-2" d="M72.13,197.05c-4.46,0-8.09-3.63-8.09-8.09s3.63-8.09,8.09-8.09,8.09,3.63,8.09,8.09-3.63,8.09-8.09,8.09ZM72.13,188.73c-.12,0-.23.1-.23.22,0,.25.45.25.45,0,0-.12-.1-.22-.22-.22Z"/>
  <path class="cls-2" d="M73.05,60.28c-4.46,0-8.09-3.63-8.09-8.09s3.63-8.09,8.09-8.09,8.09,3.63,8.09,8.09-3.63,8.09-8.09,8.09ZM73.05,51.96c-.12,0-.23.1-.23.22,0,.25.45.25.45,0,0-.12-.1-.22-.22-.22Z"/>
  <g>
    <rect class="cls-2" x="176.69" y="70.41" width="19.65" height="8.31" transform="translate(-11.54 108.08) rotate(-31.4)"/>
    <path class="cls-2" d="M178.13,87.78c-4.46,0-8.09-3.63-8.09-8.09s3.63-8.09,8.09-8.09,8.09,3.63,8.09,8.09-3.63,8.09-8.09,8.09ZM178.13,79.46c-.12,0-.23.1-.23.23,0,.25.45.25.45,0,0-.12-.1-.23-.23-.23Z"/>
  </g>
  <path class="cls-2" d="M206.97,128.6c-1.51,0-2.99-.43-4.3-1.25-3.77-2.38-4.9-7.39-2.52-11.16s7.39-4.9,11.16-2.52c1.83,1.15,3.1,2.95,3.57,5.06.48,2.11.1,4.27-1.05,6.1h0s0,0,0,0h0c-1.15,1.83-2.95,3.09-5.06,3.57-.6.13-1.2.2-1.8.2ZM206.8,120.39c-.06.09-.02.25.07.31.1.07.24.04.31-.07.07-.11.03-.25-.07-.31-.09-.05-.25-.02-.31.07ZM206.8,120.39s0,0,0,0h0Z"/>
  <g>
    <rect class="cls-2" x="182.29" y="154.29" width="8.31" height="19.65" transform="translate(-50.77 237.76) rotate(-58.6)"/>
    <path class="cls-2" d="M178.06,167.09c-4.46,0-8.09-3.63-8.09-8.09s3.63-8.09,8.09-8.09,8.09,3.63,8.09,8.09-3.63,8.09-8.09,8.09ZM178.06,158.77c-.12,0-.22.1-.22.23,0,.25.45.25.45,0,0-.12-.1-.23-.23-.23Z"/>
  </g>
  <path class="cls-2" d="M134.49,128.6c-1.51,0-2.99-.43-4.3-1.25-3.77-2.38-4.9-7.39-2.52-11.16h0c2.38-3.77,7.39-4.9,11.16-2.52,1.83,1.15,3.1,2.95,3.57,5.06.48,2.11.1,4.28-1.05,6.1-1.15,1.83-2.95,3.09-5.06,3.57-.6.13-1.2.2-1.8.2ZM134.32,120.39h0c-.06.09-.02.25.07.31.1.07.24.04.31-.07l-.38-.24ZM134.32,120.39l.38.24c.07-.11.03-.24-.07-.31-.09-.05-.25-.02-.31.07Z"/>
  <polygon class="cls-2" points="154.06 191.66 142.26 179.46 142.26 144.18 164.62 133.37 164.62 107.57 142.26 92.54 142.26 57.01 154.09 48.61 158.9 55.4 150.57 61.3 150.57 88.11 172.94 103.14 172.94 138.58 150.57 149.4 150.57 176.09 160.04 185.89 154.06 191.66"/>
  <path class="cls-2" d="M157.6,196.86c-4.46,0-8.09-3.63-8.09-8.09s3.63-8.09,8.09-8.09,8.09,3.63,8.09,8.09-3.63,8.09-8.09,8.09ZM157.6,188.55c-.12,0-.23.1-.23.23,0,.25.45.25.45,0,0-.12-.1-.23-.23-.23Z"/>
  <path class="cls-2" d="M156.68,60.09c-4.46,0-8.09-3.63-8.09-8.09s3.63-8.09,8.09-8.09,8.09,3.63,8.09,8.09-3.63,8.09-8.09,8.09ZM156.68,51.78c-.12,0-.23.1-.23.23,0,.25.45.25.45,0,0-.12-.1-.23-.23-.23Z"/>
  <rect class="cls-2" x="95.22" y="116.53" width="39.29" height="8.31"/>
  <rect class="cls-2" x="4.16" y="116.53" width="18.59" height="8.31"/>
  <rect class="cls-2" x="206.99" y="116.35" width="18.59" height="8.31"/>
  <text class="cls-3" transform="translate(249.01 107.97)"><tspan x="0" y="0">DEEP</tspan><tspan x="0" y="104.96">CH</tspan><tspan class="cls-1" x="177.99" y="104.96">E</tspan><tspan x="247.32" y="104.96">CK</tspan></text>
</svg>